<?xml version="1.0" encoding="UTF-8"?>
<svg id="Calque_2" data-name="Calque 2" xmlns="http://www.w3.org/2000/svg" width="240"
  height="200"
  viewBox="0 0 240 200">
  <defs>
    <style>
      .cls-1-bonnie {
        fill: #10171d;
      }
    </style>
  </defs>
  <g id="Calque_1-2" data-name="Calque 1" transform="translate(4.7, 0) scale(0.3)">
    <path class="cls-1-bonnie" d="M664.64,349.42c-2.95-2.94,1.01-12.81-5.25-20.38-13.19-15.98-51.52-26.42-71.5-30.98-107.03-24.44-223.57-4.2-328.08,23.57-51.01,13.55-88.48,27.67-133.73,54.87-18.28,10.99-73.21,42.65-75.24,64.4-.53,5.7,6.99,14.92-4.96,14.69-13.62-.26-20.6-16.51-25.45-26.98-14.31-30.87-29.6-75.97-13.64-108.25,1.66-3.36,8.84-12.22,9.13-13.82.84-4.62-2.24-14.12-2.27-19.57-.17-29.85,33.6-116.31,48.17-144.98C94.11,78.49,171.13,5.41,245.29.55c93.38-6.13,199.76,40.29,277.32,89.05,51.48,32.37,90.74,74.45,128.06,121.64,21.22,26.84,30.75,88.28,26.78,121.53-.49,4.06-1.93,16.62-6.21,17.85-1.73.5-5.34.07-6.6-1.18ZM25.73,276.05c-.65,6.4.47,13.68,0,20.18,44.13-34.14,95.4-58.33,147.65-77.48,100.66-36.88,198.37-66.28,307.22-54.39,37.97,4.15,92.22,9.67,127.98,20.26,2.13.63,4.73,3.62,6.77,1.96-48.34-61.8-117.46-102.46-187.82-134.91-63.62-29.34-161.58-56.65-228.48-27.59-58.74,25.51-108.38,80.42-134.28,138.32-11.12,24.85-36.5,88.55-39.04,113.65ZM447.38,276.47c3.71-2.97-2.24-44.3-3.49-51.35-1.27-7.16-11.01-50.36-14.9-52.71-3.1-1.88-7.24.43-10.38.54-9.47.33-18.86.21-28.32,1.11-24.14,2.29-48.26,7.22-72.01,11.92-.54,20.39.75,41.19,4.23,61.37,1.33,7.71,8.6,40.85,14.91,43.99l109.96-14.86ZM547.76,279.86c-.36-26.62-3.93-55.14-13.05-80.2-1.94-5.33-5.02-16.3-10.46-17.9-27.34-3.3-54.59-8.68-82.2-8.8,10.15,33.48,18.44,68.31,17.44,103.62,29.3-2.63,59.08-.15,88.27,3.27ZM610.7,197.24c-12.17-4.14-24.8-6.8-37.5-8.83-7.94-1.27-18.12-2.93-25.99-3.44-1.77-.11-6.45-1.09-5.87,1.49,1.17,5.23,5,12.57,6.71,18.39,7.29,24.73,10.8,50.37,11.08,76.18l66,15.2c.86-33.38-1.07-68.07-14.44-98.99ZM306.9,188.23l-97.58,30.5c-2.43,27.48-2.99,56.22,5.73,82.72.91,2.76,6.3,16.15,7.93,17.16,4.46,2.78,89.69-24.22,102.46-23.47-15.53-33.09-18.45-70.71-18.53-106.9ZM666.55,320.23c1.33-24.82-2.5-49.58-10.38-73.05-5.58-16.62-13.62-34.15-29.92-42.59,8.71,31.69,11.18,63.49,9.75,96.36,10.86,5.33,21.5,11.11,30.55,19.28ZM197.92,223.14c-12.47,3.14-25.16,7.62-37.32,12.27-5.85,2.24-45.48,18.34-46.44,21.18,2.85,33.89,4.83,70.72,22.25,100.72,23.86-13.71,49-25.59,75.68-32.73-2.52-8.6-6.79-16.43-9.26-25.08-7.06-24.69-7.13-50.95-4.91-76.36ZM103.1,262.4c-1.41-1.38-26.73,13.09-30.15,15.09-10.62,6.22-21.13,12.81-30.71,20.56,1.97,21.02,5.17,42.33,11.29,62.53,1.82,6.03,12.42,35.65,17.64,36.99,3.13.8,47.93-31.01,54.77-34.42-2.36-5.86-5.37-11.33-7.58-17.28-9.95-26.73-12.73-55.23-15.24-83.48ZM32.26,307.14c-1.91-.39-2.69.98-3.83,2.16-26.39,27.38-18.61,59.76-7.09,92.22,4.56,12.86,10.55,27.79,18.53,38.71,1.45-10.58,8.11-20.21,15.28-27.81,1.61-1.71,7.99-5.03,7.55-7.5-.18-1.02-2.81-2.69-3.67-4.03-16.95-26.57-23.18-62.81-26.77-93.74Z"/>
    <g>
      <path fill="$fillColor" d="M25.73,275.89c2.54-25.1,27.92-88.79,39.04-113.65,25.9-57.9,75.54-112.8,134.28-138.32,66.9-29.06,164.85-1.75,228.48,27.59,70.36,32.44,139.48,73.11,187.82,134.91-2.04,1.67-4.64-1.33-6.77-1.96-35.76-10.59-90.01-16.11-127.98-20.26-108.85-11.89-206.56,17.51-307.22,54.39-52.26,19.15-103.53,43.33-147.65,77.48.47-6.51-.65-13.78,0-20.18Z"/>
      <path fill="$fillColor" d="M447.38,276.32l-109.96,14.86c-6.31-3.14-13.58-36.28-14.91-43.99-3.48-20.17-4.77-40.98-4.23-61.37,23.75-4.7,47.87-9.63,72.01-11.92,9.45-.9,18.84-.78,28.32-1.11,3.14-.11,7.28-2.42,10.38-.54,3.89,2.36,13.63,45.55,14.9,52.71,1.25,7.05,7.2,48.38,3.49,51.35Z"/>
      <path fill="$fillColor" d="M306.9,188.08c.08,36.19,3,73.81,18.53,106.9-12.76-.74-97.99,26.25-102.46,23.47-1.62-1.01-7.02-14.4-7.93-17.16-8.72-26.5-8.16-55.24-5.73-82.72l97.58-30.5Z"/>
      <path fill="$fillColor" d="M547.76,279.71c-29.19-3.42-58.96-5.9-88.27-3.27,1-35.31-7.29-70.14-17.44-103.62,27.6.12,54.86,5.51,82.2,8.8,5.43,1.6,8.51,12.57,10.46,17.9,9.12,25.05,12.69,53.58,13.05,80.2Z"/>
      <path fill="$fillColor" d="M197.92,222.99c-2.22,25.4-2.15,51.66,4.91,76.36,2.48,8.66,6.75,16.49,9.26,25.08-26.68,7.14-51.82,19.02-75.68,32.73-17.42-29.99-19.4-66.82-22.25-100.72.96-2.84,40.59-18.95,46.44-21.18,12.16-4.65,24.85-9.13,37.32-12.27Z"/>
      <path fill="$fillColor" d="M103.1,262.25c2.51,28.25,5.29,56.75,15.24,83.48,2.22,5.95,5.22,11.42,7.58,17.28-6.84,3.41-51.64,35.23-54.77,34.42-5.22-1.34-15.82-30.97-17.64-36.99-6.11-20.21-9.31-41.52-11.29-62.53,9.58-7.75,20.09-14.34,30.71-20.56,3.42-2,28.74-16.47,30.15-15.09Z"/>
      <path fill="$fillColor" d="M610.7,197.09c13.37,30.92,15.3,65.61,14.44,98.99l-66-15.2c-.28-25.82-3.79-51.46-11.08-76.18-1.71-5.81-5.54-13.16-6.71-18.39-.58-2.58,4.1-1.61,5.87-1.49,7.87.51,18.04,2.17,25.99,3.44,12.71,2.03,25.33,4.69,37.5,8.83Z"/>
      <path fill="$fillColor" d="M32.26,306.99c3.59,30.94,9.83,67.18,26.77,93.74.86,1.34,3.49,3.01,3.67,4.03.44,2.47-5.94,5.78-7.55,7.5-7.16,7.6-13.82,17.23-15.28,27.81-7.99-10.92-13.97-25.85-18.53-38.71-11.52-32.46-19.31-64.84,7.09-92.22,1.13-1.18,1.92-2.55,3.83-2.16Z"/>
      <path fill="$fillColor" d="M666.55,320.07c-9.05-8.17-19.69-13.95-30.55-19.28,1.43-32.87-1.04-64.67-9.75-96.36,16.3,8.44,24.33,25.97,29.92,42.59,7.89,23.47,11.72,48.23,10.38,73.05Z"/>
    </g>
  </g>
</svg>