<svg xmlns="http://www.w3.org/2000/svg" xmlns:xlink="http://www.w3.org/1999/xlink" width="380" zoomAndPan="magnify" viewBox="0 0 410 409.999996" height="380" preserveAspectRatio="xMidYMid meet" version="1.2"><defs><clipPath id="1ddca3d7e1"><path d="M 18.871094 34.507812 L 183.871094 34.507812 L 183.871094 210 L 18.871094 210 Z M 18.871094 34.507812 "/></clipPath></defs><g id="732ac53ca4"><path style=" stroke:none;fill-rule:nonzero;fill:#e9f9ff;fill-opacity:1;" d="M 20.503906 209.96875 C 21.128906 208.207031 21.394531 206.316406 21.917969 204.5 C 24.375 195.945312 27.535156 189.078125 34.257812 183.097656 C 40.632812 177.421875 48.605469 176.476562 55.421875 171.65625 C 66.898438 163.539062 69.308594 148.242188 68.175781 135.015625 C 67.03125 121.660156 58.703125 110.503906 56.363281 97.054688 C 53.171875 78.6875 59.941406 59.265625 73.828125 46.957031 C 80.335938 41.1875 88.113281 40.101562 96.40625 38.4375 C 109.191406 35.871094 119.308594 34.984375 131.050781 41.550781 C 140.851562 47.035156 152.234375 55.355469 156.824219 65.914062 C 158.617188 70.035156 159.242188 74.5 160.925781 78.589844 C 162.117188 81.480469 164.402344 84.503906 164.976562 87.550781 C 165.65625 91.160156 164.855469 95.585938 165.019531 99.386719 C 165.371094 107.492188 168.789062 115.542969 166.394531 123.5625 C 164.949219 128.402344 161.496094 133.507812 159.339844 138.1875 C 155.582031 146.355469 154.550781 150.925781 147.796875 157.554688 C 134.3125 170.789062 114.652344 165.46875 103.027344 152.746094 C 99.515625 148.898438 96.730469 144.382812 92.859375 140.859375 C 88.8125 137.167969 84.457031 135.414062 82.734375 129.683594 C 81.867188 126.792969 81.449219 122.175781 81.742188 119.179688 C 81.847656 118.109375 83.363281 114.234375 82.308594 113.707031 C 81.691406 113.394531 81.109375 113.730469 80.851562 114.324219 C 78.945312 118.648438 79.574219 127.15625 81.273438 131.523438 C 83.351562 136.859375 87.609375 138.753906 91.542969 142.363281 C 95.332031 145.847656 98.066406 150.277344 101.519531 154.0625 C 107.003906 160.074219 114.039062 164.472656 122.027344 166.355469 C 126.210938 167.339844 130.226562 167.308594 134.496094 166.984375 C 135.082031 171.105469 140.597656 173.359375 144.15625 174.378906 C 157.945312 178.332031 169.261719 171.96875 176.554688 188.34375 C 179.570312 195.109375 180.949219 202.660156 181.988281 209.96875 L 166.160156 209.96875 C 166.230469 208.0625 166.878906 205.519531 166.53125 203.65625 C 166.386719 202.875 165.492188 202.472656 164.917969 203.164062 C 164.40625 203.78125 164.730469 205.078125 164.652344 205.910156 C 164.519531 207.261719 164.136719 208.59375 164.277344 209.96875 L 55.550781 209.96875 C 55.621094 208.179688 56.546875 206.335938 56.675781 204.589844 C 56.871094 201.988281 55.59375 201.972656 54.789062 204.210938 C 54.15625 205.964844 53.867188 208.128906 53.480469 209.96875 Z M 97.992188 71.707031 C 98.671875 72.386719 100.785156 71.089844 101.617188 70.808594 C 107.5 68.820312 113.273438 67.804688 119.527344 68.164062 C 123.726562 68.402344 127.921875 69.636719 132.148438 69.863281 C 137.433594 70.148438 141.617188 69.050781 146.796875 70.855469 C 148.277344 71.375 150.828125 72.972656 151.972656 73.21875 C 153.25 73.488281 154.125 72.714844 153.140625 71.671875 C 152.027344 70.492188 145.886719 68.347656 144.144531 68.042969 C 140.140625 67.339844 135.503906 68.027344 131.394531 67.789062 C 127.117188 67.542969 122.886719 66.300781 118.585938 66.089844 C 113.3125 65.828125 106.984375 66.847656 101.988281 68.539062 C 101.128906 68.832031 96.546875 70.257812 97.992188 71.707031 Z M 89.699219 79.152344 C 89.261719 79.582031 89.351562 80.652344 90.132812 80.800781 C 90.742188 80.914062 92.078125 80.835938 92.773438 80.8125 C 100.933594 80.542969 108 78.242188 115.8125 76.714844 C 122.773438 75.355469 124.003906 77.058594 130.160156 78.265625 C 135.433594 79.300781 139.34375 77.804688 144.390625 77.980469 C 145.386719 78.015625 148.625 78.945312 148.617188 77.316406 C 148.613281 76.171875 146.621094 76.144531 145.71875 76.085938 C 140.15625 75.722656 135.253906 77.429688 129.671875 76.117188 C 123.441406 74.65625 121.9375 73.449219 115.058594 74.832031 C 108.695312 76.113281 102.9375 77.875 96.34375 78.542969 C 95.203125 78.660156 90.203125 78.660156 89.699219 79.152344 Z M 145.957031 82.371094 C 144.746094 82.457031 140.21875 83.011719 139.609375 83.941406 C 139.28125 84.433594 139.503906 85.332031 140.097656 85.496094 C 140.367188 85.570312 144.558594 84.464844 145.527344 84.390625 C 149.910156 84.066406 153.957031 84.824219 157.734375 87.066406 C 158.574219 87.5625 161.414062 90.292969 161.933594 88.539062 C 162.214844 87.601562 160.84375 86.804688 160.183594 86.308594 C 156.226562 83.324219 150.871094 82.015625 145.957031 82.371094 Z M 116.941406 82.558594 C 111.894531 82.855469 104.90625 84.585938 100.269531 86.617188 C 99.320312 87.03125 96.867188 87.9375 97.226562 89.15625 C 97.636719 90.550781 100.335938 88.777344 101.15625 88.449219 C 105.632812 86.65625 111.6875 84.859375 116.5 84.570312 C 117.929688 84.480469 120.996094 84.867188 122.121094 84.539062 C 122.792969 84.34375 122.996094 83.597656 122.53125 83.078125 C 121.855469 82.324219 118.042969 82.496094 116.941406 82.558594 Z M 120.792969 87.828125 C 120.667969 87.953125 120.574219 88.273438 120.570312 88.453125 C 120.558594 89.199219 122.949219 93.996094 123.574219 94.285156 C 124.203125 94.570312 124.882812 94.492188 124.910156 93.722656 C 124.933594 93.0625 122.886719 88.6875 122.417969 88.089844 C 122.039062 87.613281 121.25 87.375 120.792969 87.828125 Z M 142.933594 97.160156 C 143.242188 96.863281 144.601562 92.609375 144.660156 92 C 144.796875 90.507812 143.492188 90.136719 142.96875 90.929688 C 142.738281 91.273438 141.414062 95.578125 141.367188 96.070312 C 141.273438 97.070312 142.175781 97.894531 142.933594 97.160156 Z M 106.765625 96.699219 C 105.597656 96.792969 100.558594 97.457031 100.234375 98.667969 C 100.757812 100.585938 100.652344 102.523438 102.1875 103.996094 C 105.167969 106.851562 114.121094 106.867188 117.925781 105.984375 C 123.605469 104.667969 124.128906 100.03125 118.671875 97.871094 C 115.3125 96.542969 110.355469 96.417969 106.765625 96.699219 Z M 150.855469 97.453125 C 147.871094 97.746094 138.785156 101.085938 143.457031 104.9375 C 145.339844 106.488281 152.050781 107.199219 154.570312 107.21875 C 157.988281 107.25 159.832031 103.476562 160.105469 100.488281 C 160.210938 99.371094 160.28125 98.472656 159.132812 97.925781 C 157.558594 97.175781 152.699219 97.277344 150.855469 97.453125 Z M 138.410156 108.175781 C 136.835938 108.46875 138.417969 111.707031 138.804688 112.609375 C 140.046875 115.539062 141.824219 118.464844 144.210938 120.585938 C 145.039062 121.324219 146.367188 121.65625 146.550781 122.960938 C 146.851562 125.097656 144.539062 129.417969 142.417969 130.117188 C 140.578125 130.726562 138.027344 129.535156 137 129.972656 C 136.144531 130.339844 136.195312 131.378906 137.027344 131.734375 C 138.066406 132.179688 140.992188 132.414062 142.117188 132.265625 C 146.136719 131.738281 150.449219 123.957031 147.664062 120.714844 C 147.105469 120.0625 146.011719 119.511719 145.332031 118.898438 C 143.644531 117.382812 142.3125 115.332031 141.3125 113.304688 C 140.675781 112.019531 140.101562 109.75 139.480469 108.726562 C 139.21875 108.300781 138.929688 108.078125 138.410156 108.175781 Z M 127.109375 131.671875 C 127.589844 131.191406 127.277344 130.234375 126.644531 130.058594 C 125.898438 129.847656 125.082031 130.164062 124.230469 129.648438 C 123.441406 129.171875 122.347656 127.273438 122.429688 126.339844 C 122.59375 124.5 126.222656 124.464844 125.097656 122.933594 C 123.972656 121.402344 121.148438 124 120.660156 125.308594 C 119.742188 127.777344 122.160156 131.617188 124.800781 131.90625 C 125.285156 131.957031 126.796875 131.980469 127.109375 131.671875 Z M 130.867188 128.363281 C 129.6875 128.621094 129.714844 130.078125 130.679688 130.355469 C 131.398438 130.5625 133.667969 130.410156 133.910156 129.503906 C 134.3125 127.992188 131.796875 128.15625 130.871094 128.359375 Z M 148.023438 146 C 148.488281 145.535156 148.246094 144.910156 147.789062 144.535156 C 146.484375 143.460938 140.445312 142.746094 138.53125 142.488281 C 131.980469 141.609375 124.527344 140.234375 118.15625 142.039062 C 117.398438 142.253906 113.582031 143.300781 114.902344 144.636719 C 115.632812 145.375 118.199219 144.089844 119.199219 143.839844 C 121.480469 143.269531 123.75 142.90625 126.117188 143.035156 C 131.675781 143.335938 139.566406 144.453125 145.023438 145.609375 C 145.800781 145.773438 147.40625 146.617188 148.023438 146.003906 Z M 139.167969 148.921875 C 138.957031 148.710938 138.480469 148.707031 138.183594 148.679688 C 136.226562 148.515625 132.390625 148.492188 130.453125 148.6875 C 128.292969 148.902344 128.292969 150.546875 130.453125 150.761719 C 132.476562 150.960938 136.332031 150.84375 138.375 150.582031 C 139.210938 150.476562 139.796875 149.546875 139.167969 148.921875 Z M 96.953125 178.710938 C 96.464844 178.816406 96.261719 179.015625 96.230469 179.515625 C 96.140625 181.199219 98.460938 180.648438 99.527344 180.765625 C 102.453125 181.082031 103.878906 182.773438 106.179688 184.097656 C 112.152344 187.535156 113.101562 183.046875 118.207031 182.441406 C 119.171875 182.328125 121.550781 182.921875 120.90625 181.054688 C 120.652344 180.324219 117.8125 180.5 117.09375 180.574219 C 114.277344 180.871094 112.167969 183.65625 109.554688 183.367188 C 107.578125 183.144531 105.453125 180.914062 103.660156 180.019531 C 101.988281 179.183594 98.78125 178.3125 96.953125 178.707031 Z M 96.953125 178.710938 "/><path style=" stroke:none;fill-rule:nonzero;fill:#e9f9ff;fill-opacity:1;" d="M 109.441406 98.53125 C 109.289062 100.0625 108.929688 102.140625 109.59375 103.566406 C 109.773438 103.953125 110.226562 104.113281 110.195312 104.5625 C 107.980469 104.195312 103.914062 104.015625 102.863281 101.625 C 102.601562 101.027344 102.261719 99.730469 102.96875 99.3125 C 103.570312 98.960938 109.195312 98.285156 109.441406 98.53125 Z M 109.441406 98.53125 "/><path style=" stroke:none;fill-rule:nonzero;fill:#e9f9ff;fill-opacity:1;" d="M 120.117188 102.992188 C 119.835938 103.28125 117.953125 104.21875 117.730469 104 C 117.757812 103.296875 118.316406 102.886719 118.4375 102.164062 C 118.558594 101.460938 118.453125 100.742188 118.484375 100.039062 C 118.753906 99.761719 121.613281 101.4375 120.117188 102.992188 Z M 120.117188 102.992188 "/><path style=" stroke:none;fill-rule:nonzero;fill:#e9f9ff;fill-opacity:1;" d="M 153.535156 99.285156 C 152.847656 100.074219 152.335938 100.523438 152.214844 101.640625 C 152.058594 103.039062 152.367188 103.917969 152.96875 105.128906 C 151.351562 104.800781 144.828125 104.742188 144.328125 102.917969 C 144.078125 102.011719 146.207031 100.859375 146.941406 100.511719 C 148.960938 99.558594 151.324219 99.226562 153.535156 99.285156 Z M 153.535156 99.285156 "/><g clip-rule="nonzero" clip-path="url(#1ddca3d7e1)"><path style=" stroke:none;fill-rule:nonzero;fill:#10171d;fill-opacity:1;" d="M 19.371094 209.96875 C 18.617188 209.191406 18.902344 208.617188 19.050781 207.667969 C 20.527344 198.292969 25.894531 187.890625 32.933594 181.585938 C 39.496094 175.714844 47.210938 174.953125 54.101562 170.148438 C 64.699219 162.757812 66.871094 149.242188 66.296875 137.082031 C 65.703125 124.496094 59.023438 115.222656 55.789062 103.472656 C 49.988281 82.367188 56.128906 59.980469 72.503906 45.445312 C 77.53125 40.984375 81.367188 39.839844 87.765625 38.28125 C 100.554688 35.164062 115.460938 32.027344 127.972656 37.648438 C 137.84375 42.085938 151.878906 52.472656 157.144531 62.007812 C 160.300781 67.726562 160.886719 73.796875 163.542969 79.550781 C 164.355469 81.308594 165.546875 82.953125 166.246094 84.765625 C 168.011719 89.339844 166.824219 95.714844 167.101562 100.695312 C 167.492188 107.820312 170.367188 114.734375 168.894531 121.914062 C 167.6875 127.804688 163.613281 133.707031 161.097656 139.1875 C 158.367188 145.125 157.273438 149.570312 152.960938 154.804688 C 148.679688 160.003906 143.191406 165.023438 136.390625 166.414062 C 136.734375 169.367188 140.921875 171.21875 143.441406 172.070312 C 156.117188 176.347656 168.9375 170.269531 176.929688 184.574219 C 181.085938 192.011719 182.921875 201.570312 183.867188 209.964844 L 181.984375 209.964844 C 180.941406 202.660156 179.566406 195.109375 176.550781 188.34375 C 169.253906 171.96875 157.9375 178.332031 144.152344 174.375 C 140.589844 173.355469 135.074219 171.101562 134.488281 166.980469 C 130.222656 167.304688 126.207031 167.339844 122.019531 166.351562 C 114.03125 164.46875 107 160.070312 101.515625 154.0625 C 98.0625 150.273438 95.328125 145.847656 91.535156 142.363281 C 87.605469 138.75 83.34375 136.859375 81.269531 131.519531 C 79.570312 127.15625 78.941406 118.644531 80.84375 114.320312 C 81.105469 113.730469 81.683594 113.394531 82.304688 113.703125 C 83.359375 114.230469 81.84375 118.105469 81.738281 119.175781 C 81.445312 122.171875 81.863281 126.789062 82.730469 129.683594 C 84.449219 135.414062 88.804688 137.167969 92.855469 140.855469 C 96.726562 144.382812 99.507812 148.894531 103.023438 152.742188 C 114.644531 165.464844 134.304688 170.789062 147.789062 157.554688 C 154.546875 150.925781 155.578125 146.351562 159.335938 138.1875 C 161.488281 133.503906 164.945312 128.402344 166.390625 123.5625 C 168.785156 115.542969 165.363281 107.492188 165.015625 99.382812 C 164.847656 95.582031 165.652344 91.15625 164.96875 87.546875 C 164.394531 84.5 162.109375 81.476562 160.921875 78.589844 C 159.238281 74.5 158.613281 70.03125 156.820312 65.914062 C 152.226562 55.355469 140.84375 47.035156 131.046875 41.550781 C 119.304688 34.980469 109.1875 35.867188 96.398438 38.4375 C 88.109375 40.101562 80.328125 41.183594 73.820312 46.953125 C 59.933594 59.265625 53.164062 78.6875 56.359375 97.054688 C 58.695312 110.5 67.023438 121.65625 68.167969 135.015625 C 69.300781 148.238281 66.894531 163.535156 55.417969 171.652344 C 48.601562 176.476562 40.628906 177.421875 34.25 183.09375 C 27.53125 189.074219 24.375 195.945312 21.910156 204.5 C 21.390625 206.316406 21.121094 208.207031 20.496094 209.96875 Z M 19.371094 209.96875 "/></g><path style=" stroke:none;fill-rule:nonzero;fill:#10171d;fill-opacity:1;" d="M 55.550781 209.96875 L 53.476562 209.96875 C 53.863281 208.128906 54.15625 205.96875 54.789062 204.210938 C 55.589844 201.976562 56.871094 201.988281 56.675781 204.589844 C 56.542969 206.335938 55.621094 208.179688 55.546875 209.96875 Z M 55.550781 209.96875 "/><path style=" stroke:none;fill-rule:nonzero;fill:#10171d;fill-opacity:1;" d="M 166.160156 209.96875 L 164.273438 209.96875 C 164.136719 208.597656 164.519531 207.261719 164.648438 205.910156 C 164.730469 205.078125 164.402344 203.78125 164.917969 203.164062 C 165.492188 202.476562 166.386719 202.878906 166.53125 203.65625 C 166.878906 205.519531 166.230469 208.0625 166.160156 209.96875 Z M 166.160156 209.96875 "/><path style=" stroke:none;fill-rule:nonzero;fill:#10171d;fill-opacity:1;" d="M 106.765625 96.699219 C 110.355469 96.421875 115.3125 96.546875 118.671875 97.871094 C 124.128906 100.03125 123.605469 104.667969 117.925781 105.984375 C 114.121094 106.867188 105.167969 106.851562 102.1875 103.996094 C 100.652344 102.523438 100.757812 100.585938 100.234375 98.667969 C 100.558594 97.457031 105.597656 96.792969 106.765625 96.699219 Z M 109.441406 98.53125 C 109.195312 98.285156 103.570312 98.960938 102.96875 99.3125 C 102.261719 99.730469 102.601562 101.027344 102.863281 101.625 C 103.914062 104.015625 107.980469 104.195312 110.195312 104.5625 C 110.226562 104.113281 109.769531 103.953125 109.59375 103.566406 C 108.933594 102.136719 109.289062 100.0625 109.441406 98.53125 Z M 120.117188 102.992188 C 121.613281 101.4375 118.753906 99.761719 118.484375 100.039062 C 118.449219 100.742188 118.558594 101.460938 118.4375 102.164062 C 118.316406 102.886719 117.757812 103.296875 117.730469 104 C 117.953125 104.21875 119.835938 103.28125 120.117188 102.992188 Z M 120.117188 102.992188 "/><path style=" stroke:none;fill-rule:nonzero;fill:#10171d;fill-opacity:1;" d="M 89.699219 79.152344 C 90.203125 78.65625 95.203125 78.65625 96.34375 78.542969 C 102.941406 77.871094 108.695312 76.109375 115.058594 74.832031 C 121.941406 73.449219 123.445312 74.65625 129.675781 76.117188 C 135.253906 77.425781 140.160156 75.722656 145.722656 76.082031 C 146.621094 76.140625 148.617188 76.171875 148.621094 77.316406 C 148.625 78.941406 145.386719 78.011719 144.394531 77.976562 C 139.347656 77.804688 135.433594 79.300781 130.164062 78.265625 C 124.003906 77.058594 122.773438 75.355469 115.816406 76.714844 C 108.003906 78.242188 100.933594 80.539062 92.773438 80.8125 C 92.082031 80.832031 90.742188 80.914062 90.132812 80.796875 C 89.351562 80.648438 89.261719 79.582031 89.703125 79.148438 Z M 89.699219 79.152344 "/><path style=" stroke:none;fill-rule:nonzero;fill:#10171d;fill-opacity:1;" d="M 97.992188 71.707031 C 96.546875 70.257812 101.128906 68.835938 101.988281 68.539062 C 106.984375 66.847656 113.3125 65.828125 118.585938 66.089844 C 122.886719 66.300781 127.117188 67.542969 131.394531 67.789062 C 135.503906 68.027344 140.140625 67.339844 144.144531 68.042969 C 145.886719 68.34375 152.027344 70.492188 153.140625 71.671875 C 154.125 72.714844 153.25 73.492188 151.972656 73.21875 C 150.828125 72.972656 148.277344 71.375 146.796875 70.855469 C 141.617188 69.050781 137.429688 70.148438 132.148438 69.863281 C 127.925781 69.636719 123.730469 68.402344 119.527344 68.164062 C 113.273438 67.804688 107.5 68.820312 101.617188 70.808594 C 100.78125 71.089844 98.671875 72.386719 97.992188 71.707031 Z M 97.992188 71.707031 "/><path style=" stroke:none;fill-rule:nonzero;fill:#10171d;fill-opacity:1;" d="M 150.855469 97.453125 C 152.699219 97.277344 157.558594 97.175781 159.132812 97.925781 C 160.28125 98.472656 160.210938 99.371094 160.105469 100.488281 C 159.832031 103.476562 157.988281 107.25 154.574219 107.21875 C 152.050781 107.199219 145.339844 106.484375 143.460938 104.9375 C 138.789062 101.085938 147.871094 97.746094 150.859375 97.453125 Z M 153.535156 99.285156 C 151.320312 99.230469 148.957031 99.558594 146.941406 100.515625 C 146.207031 100.859375 144.078125 102.011719 144.328125 102.921875 C 144.828125 104.746094 151.351562 104.800781 152.964844 105.128906 C 152.363281 103.921875 152.058594 103.039062 152.210938 101.640625 C 152.335938 100.527344 152.847656 100.074219 153.53125 99.289062 Z M 153.535156 99.285156 "/><path style=" stroke:none;fill-rule:nonzero;fill:#10171d;fill-opacity:1;" d="M 138.410156 108.175781 C 138.929688 108.078125 139.222656 108.300781 139.480469 108.726562 C 140.101562 109.75 140.675781 112.019531 141.3125 113.304688 C 142.3125 115.328125 143.644531 117.382812 145.332031 118.898438 C 146.015625 119.511719 147.105469 120.0625 147.664062 120.714844 C 150.449219 123.960938 146.140625 131.738281 142.117188 132.265625 C 140.992188 132.414062 138.066406 132.179688 137.027344 131.734375 C 136.195312 131.378906 136.144531 130.339844 137.003906 129.972656 C 138.027344 129.535156 140.578125 130.726562 142.421875 130.117188 C 144.539062 129.417969 146.855469 125.097656 146.550781 122.960938 C 146.367188 121.65625 145.039062 121.324219 144.210938 120.585938 C 141.828125 118.464844 140.046875 115.539062 138.804688 112.609375 C 138.421875 111.703125 136.839844 108.46875 138.414062 108.175781 Z M 138.410156 108.175781 "/><path style=" stroke:none;fill-rule:nonzero;fill:#10171d;fill-opacity:1;" d="M 148.023438 146 C 147.40625 146.617188 145.800781 145.773438 145.023438 145.609375 C 139.566406 144.453125 131.675781 143.335938 126.117188 143.03125 C 123.75 142.90625 121.480469 143.265625 119.199219 143.835938 C 118.199219 144.089844 115.632812 145.375 114.902344 144.636719 C 113.578125 143.300781 117.398438 142.25 118.15625 142.035156 C 124.527344 140.230469 131.980469 141.609375 138.53125 142.484375 C 140.449219 142.742188 146.484375 143.460938 147.789062 144.535156 C 148.246094 144.910156 148.488281 145.535156 148.023438 146 Z M 148.023438 146 "/><path style=" stroke:none;fill-rule:nonzero;fill:#10171d;fill-opacity:1;" d="M 96.953125 178.710938 C 98.777344 178.3125 101.984375 179.1875 103.660156 180.019531 C 105.453125 180.917969 107.578125 183.144531 109.550781 183.367188 C 112.167969 183.660156 114.277344 180.871094 117.09375 180.578125 C 117.8125 180.5 120.652344 180.324219 120.90625 181.058594 C 121.550781 182.925781 119.167969 182.328125 118.207031 182.441406 C 113.101562 183.046875 112.148438 187.535156 106.179688 184.101562 C 103.875 182.773438 102.453125 181.085938 99.523438 180.765625 C 98.460938 180.652344 96.140625 181.203125 96.230469 179.515625 C 96.257812 179.019531 96.464844 178.816406 96.953125 178.710938 Z M 96.953125 178.710938 "/><path style=" stroke:none;fill-rule:nonzero;fill:#10171d;fill-opacity:1;" d="M 116.941406 82.558594 C 118.042969 82.492188 121.855469 82.320312 122.527344 83.074219 C 122.996094 83.59375 122.792969 84.339844 122.121094 84.535156 C 120.992188 84.863281 117.925781 84.480469 116.5 84.566406 C 111.6875 84.859375 105.632812 86.652344 101.15625 88.445312 C 100.332031 88.777344 97.636719 90.546875 97.226562 89.15625 C 96.863281 87.9375 99.320312 87.03125 100.269531 86.613281 C 104.90625 84.585938 111.894531 82.851562 116.9375 82.554688 Z M 116.941406 82.558594 "/><path style=" stroke:none;fill-rule:nonzero;fill:#10171d;fill-opacity:1;" d="M 145.957031 82.371094 C 150.875 82.015625 156.230469 83.324219 160.1875 86.308594 C 160.84375 86.804688 162.214844 87.601562 161.9375 88.539062 C 161.414062 90.292969 158.574219 87.5625 157.738281 87.066406 C 153.957031 84.824219 149.914062 84.066406 145.527344 84.390625 C 144.558594 84.464844 140.367188 85.570312 140.101562 85.496094 C 139.503906 85.332031 139.285156 84.433594 139.609375 83.941406 C 140.21875 83.015625 144.746094 82.457031 145.957031 82.371094 Z M 145.957031 82.371094 "/><path style=" stroke:none;fill-rule:nonzero;fill:#10171d;fill-opacity:1;" d="M 127.109375 131.671875 C 126.796875 131.980469 125.28125 131.957031 124.796875 131.90625 C 122.160156 131.617188 119.738281 127.777344 120.660156 125.308594 C 121.148438 124 123.96875 121.402344 125.09375 122.933594 C 126.21875 124.464844 122.589844 124.5 122.429688 126.339844 C 122.34375 127.273438 123.441406 129.171875 124.226562 129.648438 C 125.078125 130.164062 125.894531 129.847656 126.644531 130.058594 C 127.273438 130.238281 127.585938 131.191406 127.105469 131.671875 Z M 127.109375 131.671875 "/><path style=" stroke:none;fill-rule:nonzero;fill:#10171d;fill-opacity:1;" d="M 139.167969 148.921875 C 139.796875 149.546875 139.210938 150.476562 138.375 150.582031 C 136.332031 150.84375 132.476562 150.960938 130.453125 150.761719 C 128.292969 150.546875 128.292969 148.898438 130.453125 148.6875 C 132.390625 148.496094 136.226562 148.515625 138.183594 148.679688 C 138.480469 148.703125 138.957031 148.710938 139.167969 148.921875 Z M 139.167969 148.921875 "/><path style=" stroke:none;fill-rule:nonzero;fill:#10171d;fill-opacity:1;" d="M 120.792969 87.828125 C 121.25 87.375 122.039062 87.613281 122.417969 88.089844 C 122.886719 88.683594 124.933594 93.0625 124.910156 93.722656 C 124.882812 94.492188 124.203125 94.574219 123.574219 94.285156 C 122.945312 93.996094 120.558594 89.199219 120.570312 88.453125 C 120.574219 88.273438 120.667969 87.953125 120.792969 87.828125 Z M 120.792969 87.828125 "/><path style=" stroke:none;fill-rule:nonzero;fill:#10171d;fill-opacity:1;" d="M 142.933594 97.160156 C 142.175781 97.894531 141.273438 97.070312 141.367188 96.070312 C 141.414062 95.578125 142.738281 91.273438 142.96875 90.929688 C 143.496094 90.136719 144.796875 90.507812 144.660156 92 C 144.601562 92.609375 143.242188 96.863281 142.933594 97.160156 Z M 142.933594 97.160156 "/><path style=" stroke:none;fill-rule:nonzero;fill:#10171d;fill-opacity:1;" d="M 130.867188 128.363281 C 131.796875 128.160156 134.3125 127.992188 133.90625 129.503906 C 133.667969 130.414062 131.394531 130.5625 130.679688 130.359375 C 129.714844 130.078125 129.6875 128.625 130.867188 128.363281 Z M 130.867188 128.363281 "/></g></svg>