<?xml version="1.0" encoding="UTF-8"?>
<svg id="Calque_2" data-name="Calque 2" xmlns="http://www.w3.org/2000/svg" width="281"
  height="93"
  viewBox="0 0 281 93">
  <defs>
    <style>
      .cls-1-clothe-p {
        fill: #1a3bff;
      }

      .cls-2-clothe-p {
        fill: #10171d;
      }

      .cls-3-clothe-p {
        fill: #cecece;
      }

      .cls-4-clothe-p {
        fill: #0214ba;
      }
    </style>
  </defs>
  <g id="Calque_1-2" data-name="Calque 1" transform="translate(0, 0) scale(0.4)">
    <path class="cls-2-clothe-p" d="M797.75,229.56c-.39-5.61-4.99-20.04-4.34-23.47-.37-.3-.75-.57-1.13-.81-5.73-3.68-12.15-1.14-10.86,6.73.29,1.74,1.73,3.01,2.55,4.67.18.36.33.74.43,1.15,8.65,34.34-8.49,59.48-41.13,69.53-17.58,5.41-35.7,6.27-53.27,10.37-3.94.92-7.84,2-11.71,3.34-5.05,1.73-10.03,3.9-14.91,6.69-5.7,3.25-10.79,8.39-16.5,10.75-7.34-5.5-14.18-8.12-23.55-6.12-3.6.77-8.1,5.01-10.3,4.94-1.42-.05-5.39-3.18-7.93-4.03-16.6-5.53-48.5-4.04-67.25-5.77-87.03-7.99-182.12-50.33-251.55-104.72-3.22-2.52-6.38-5.06-9.48-7.63-.28-.23-.56-.46-.84-.69-8.68-7.13-18.13-14.01-25.34-22.74-6.65-8.04-4.64-9.1-.16-17.67,6.42-12.3,16.54-23.03,30.02-26.36.23-.06.45-.12.68-.17,3.72-.85,10.15.05,9.82-5.91-.33-6-6.09-7.15-10.98-6.29-.35.05-.69.12-1.02.2-18.65,4.4-31.09,21.29-40.09,36.79-2.12,3.65-4.6-1.93-6.13-4.16-11.84-17.28-22.7-48.55-11.35-67.89,9.02-15.36,30.86-21.72,46.28-28.45.5-.22.99-.44,1.48-.66,11.06-4.99,8.53-14.79-5.38-10.93-.02.01-.05.01-.07.02-12.77,3.58-40.14,19.07-48.51,29.44-25.23,31.3,1.59,80.44,23.97,105.85,9.4,10.67,20.98,21.42,34.13,31.95,3.26,2.63,6.62,5.23,10.07,7.81,62.04,46.59,152.13,87.69,214.43,98.45,30.71,5.31,60.77,4.57,91.22,7.97,9.38,1.05,19.34,1.54,19.12,13.56-.31,17.67-12.95,44.74-12.08,62.2.23,4.67,2.68,8.53,6.04,11.5,4.56,4.05,5.59.82,6.96,9.4,4.87,30.29,5.09,64.94,7.77,95.87.71,8.21,1.72,16.54,2.84,24.73.13,1.03.28,2.06.42,3.09h10.9l-.26-3.09-10.66-125.01c.14-.94,14.03-1.07,15.35-.15,1.98,1.38.79,13.24.97,16.48.93,16.62,1.88,33.55,3.32,50.13,1.72,19.57,4.65,39.09,7.22,58.55.14,1.03.28,2.06.41,3.09h10.9c-.09-1.03-.18-2.06-.29-3.09-1.6-16.28-4.66-32.45-6.25-48.73-2.07-21.18-3.51-43.06-4.41-64.32-.09-2.2-.31-12.65.22-13.5,1.41-2.25,8.45.02,9.63-10.54,2.07-18.37-3.77-38.96-4.24-56.85-.05-1.84.86-13.78,1.2-14.93.56-1.88,6.84-7.27,8.79-8.65,7.08-5.02,14.85-8.39,23.01-10.84,4.62-1.39,9.37-2.48,14.19-3.42,26.04-5.09,53.98-5.6,74.77-23.12,17.36-14.62,24.46-31.46,22.86-54.54ZM628.61,323.05c14.69-1.26,20.52,20.15,7.03,22.47-14.5,2.5-24.08-21.01-7.03-22.47ZM616.26,402.5c-4.8-.4-9.2-1.09-9.13-7l8.64-44.32c9.63,2.96,16.86,7.99,27.23,3.27l3.22,46.86c-1.31,1.35-26.16,1.5-29.96,1.19Z"/>
    <path class="cls-2-clothe-p" d="M251.75,11.91c-15.93,4.98-26.22,4.94-42.15,13.99-27.25,15.51-62.79,61.36-63.59,93.5-.17,6.72,6.53,24.01-2.77,24.46-5.98.29-3.89-2.83-9.76,3.3-39.75,41.54-27.23,110.52-4.74,157.49,1.77,3.69,7.8,17.54,12.11,16.9,27.49-12.62,56.79-21.22,86.91-24.94-7.21-4.79-7.66-13.18,2.67-11.95,96.88,57.44,192.61,113.34,307.4,124.31,5.21.5,30.42.14,32.22,2.92,1.88,2.91.96,7.08-2.28,8.52-4.57,2.03-26.67.03-33.21-.52-106.73-9.07-199.93-61.4-290.4-114.05-60.18,6.32-120.95,25.71-161.37,73.12-3.99,4.68-6.71,10.55-10.3,14.78-5.34,6.31-14.27,12.14-20.16,19.1-18.26,21.58-33.33,57.18-36.93,85.21-1.88,14.65-1.23,29.55-4.51,44.03H0c2.84-20.64,2.55-41.62,7.27-61.99,5.98-25.79,21.93-58.45,39.62-78.16,5.25-5.85,12.02-10.18,16.88-15.83,4.69-5.46,8.48-12.35,13.58-18.04,13.97-15.59,32.38-29.47,50.07-40.5-3.8-9.67-9.43-18.97-13.5-28.78-21.06-50.75-29.15-110.84,8.67-155.98,2.35-2.81,11.64-10.46,12.32-12.76,1.13-3.82-.21-10.58.24-15.03C140.46,62.47,197.02,6.71,249.3.2c13.81-1.72,13.22,8.35,2.45,11.71Z"/>
    <path class="cls-2-clothe-p" d="M809.75,177.73c-2.26-3.54-8.67-12.01-3.62-15.35,5.59-3.7,10.35,4.64,13.22,8.46,21.33,28.31,37.73,75.22,19.29,108.36-1.48,2.65-7.7,10.22-7.92,11.61-.29,1.8,3,8.23,3.6,11.22,1.38,6.83,2.25,13.96.48,20.78,22.26,5.03,45.46,15.15,64.87,27.25,18.04,11.25,35.67,28.2,50.67,43.1,40.87,40.61,70.75,89.58,73,148.92h-10.9c-2.37-42.62-19.65-81.96-45.8-115.06-1.68-2.13-22.46-26.58-23.94-24.58,1.58,36.25.83,73.1-9.04,108.23-2.99,10.65-7.65,20.75-10.59,31.4h-11.99c17.34-41.52,23.11-85.46,20.76-130.42-.26-4.96-1.19-17.31-2.47-21.52-1.61-5.28-20.69-20.27-26.03-24.12-20.38-14.7-45.67-26.09-70.04-32.22-3.97,7.05-7.02,14.37-11.76,21-27.81,38.89-88.69,56.48-134.42,58.54-4.94.22-16.89,1.35-18.63-4.33-3.34-10.88,20.37-7.18,26.26-7.67,40.46-3.41,87.49-17.02,114.46-49.07,4.66-5.54,14.7-22.04,14.7-28.92v-18.55c0-.17-1.07-3.18-2.16-2.72-2.71,7.4-11.36,4.87-9.78-3.76.7-3.83,12.73-17.55,15.67-22.51,19.73-33.3.37-69.48-17.9-98.09Z"/>
    <path class="cls-2-clothe-p" d="M244.13,542.09h-11.99c-15.63-61.84-67.31-105.79-122.04-133.66-6.62-3.37-23.48-8.93-27.83-12.5-4.82-3.95-2.95-10.01,3.27-9.86,4.13.1,16.12,5.8,20.57,7.81,18.96,8.57,40.46,22.02,57.25,34.33,39.25,28.78,68.54,65.96,80.77,113.88Z"/>
    <path class="cls-2-clothe-p" d="M362.1,309.99c.74-.73,2.58-1.21,3.64-1.3,5.02-.42,19.2,7.22,25.24,9.49,58.29,21.87,117.86,35.79,180.62,36.3,5.42,1.24,6.85,8,1.64,10.31-4.37,1.94-29.79-.02-36.47-.53-50.48-3.85-115.4-19.14-161.5-40.16-4.17-1.9-19.71-7.67-13.16-14.11Z"/>
    <path class="cls-2-clothe-p" d="M188.16,184.66c22.09,28.46,47.69,53.94,79.21,71.8,22.28,12.62,52.59,24.26,73.02,38.18,9,6.13,5.4,14.79-4.42,10.96-37.77-22.59-80.58-37.57-113.66-67.31-10-8.99-37.98-36.34-43.42-47.07-4.21-8.32,3.04-12.12,9.27-6.56Z"/>
    <path class="cls-2-clothe-p" d="M804.04,313.27c5.52,5.44-6.88,12.78-10.73,15.45-23,16.03-52.28,24.75-79.45,30.65-8.35,1.81-23.43,5.52-31.38,5.7-8.35.19-10.44-7.61-3.05-10.71,7.12-2.99,22.51-3.93,31.16-5.9,21.66-4.94,44.74-11.22,64.31-21.81,5.26-2.85,18.24-13.19,21.72-14.29,2.14-.67,5.78-.71,7.41.9Z"/>
    <g>
      <path class="cls-1-clothe-p" d="M616.86,514.27c-2.68-30.93-2.9-65.58-7.77-95.87-1.37-8.58-2.4-5.35-6.96-9.4-3.36-2.97-5.81-6.83-6.04-11.5-.87-17.46,11.77-44.53,12.08-62.2.22-12.02-9.74-12.51-19.12-13.56-30.45-3.4-60.51-2.66-91.22-7.97-79.7-13.77-204.88-77.19-258.63-138.21-22.38-25.41-49.2-74.55-23.97-105.85,8.37-10.37,35.74-25.86,48.51-29.44l-11.99-28.36c-15.93,4.97-26.22,4.94-42.14,13.99-27.26,15.51-62.79,61.36-63.59,93.51-.17,6.71,6.53,24-2.77,24.46-5.97.29-3.89-2.83-9.76,3.3-39.75,41.54-27.23,110.52-4.74,157.49,1.77,3.7,7.8,17.55,12.11,16.9,27.49-12.62,56.8-21.21,86.92-24.93-7.22-4.79-7.67-13.18,2.66-11.95,96.88,57.44,192.62,113.34,307.41,124.31,5.2.5,30.42.14,32.22,2.92,1.88,2.91.95,7.08-2.29,8.52-4.56,2.03-26.67.03-33.21-.53-106.73-9.06-199.93-61.4-290.4-114.05-60.18,6.32-120.95,25.71-161.37,73.12-3.99,4.68-6.72,10.55-10.3,14.78-5.34,6.31-14.27,12.14-20.16,19.1-18.25,21.58-33.33,57.18-36.93,85.21-1.88,14.66-1.23,29.56-4.51,44.03h221.24c-15.64-61.84-67.31-105.79-122.04-133.66-6.63-3.37-23.48-8.93-27.83-12.5-4.82-3.95-2.95-10.01,3.27-9.86,4.13.1,16.12,5.8,20.57,7.81,18.95,8.57,40.45,22.02,57.25,34.33,39.24,28.78,68.54,65.96,80.76,113.88h376c-1.28-9.18-2.46-18.58-3.26-27.82ZM335.97,305.6c-37.77-22.59-80.58-37.57-113.66-67.31-10-8.99-37.98-36.34-43.42-47.07-4.21-8.32,3.04-12.12,9.27-6.56,22.08,28.46,47.69,53.94,79.21,71.8,22.28,12.62,52.59,24.26,73.02,38.18,9.01,6.13,5.4,14.78-4.42,10.96ZM573.23,364.79c-4.37,1.94-29.78-.02-36.47-.53-50.48-3.85-115.4-19.14-161.5-40.16-4.17-1.9-19.71-7.67-13.16-14.11.74-.73,2.58-1.21,3.64-1.3,5.02-.41,19.2,7.23,25.24,9.49,58.29,21.87,117.86,35.79,180.62,36.3,5.42,1.24,6.85,8,1.63,10.31Z"/>
      <path class="cls-1-clothe-p" d="M809.75,177.73c18.27,28.61,37.62,64.79,17.9,98.09-2.94,4.96-14.97,18.68-15.67,22.51-1.58,8.63,7.07,11.16,9.78,3.76,1.09-.46,2.16,2.55,2.16,2.72v18.55c0,6.88-10.04,23.38-14.7,28.92-26.97,32.05-73.99,45.66-114.46,49.07-5.89.5-29.6-3.21-26.26,7.67,1.74,5.67,13.69,4.55,18.63,4.33,45.74-2.05,106.62-19.65,134.42-58.54,4.74-6.63,7.8-13.96,11.76-21,24.37,6.12,49.66,17.52,70.04,32.22,5.34,3.85,24.42,18.84,26.03,24.12,1.28,4.21,2.22,16.56,2.47,21.52,2.35,44.96-3.42,88.9-20.76,130.42h-252.84c-1.5-17.33-4.84-34.51-6.53-51.82-2.07-21.17-3.51-43.06-4.41-64.31-.09-2.2-.31-12.66.22-13.51,1.4-2.25,8.44.03,9.63-10.54,2.06-18.37-3.78-38.96-4.25-56.85-.05-1.84.86-13.78,1.2-14.93.56-1.88,6.84-7.27,8.79-8.66,32.79-23.27,80.56-10.91,111.97-37.37,17.36-14.63,24.46-31.47,22.86-54.54-.39-5.61-4.99-20.04-4.35-23.47.29-1.54,5.44-7.76,6.73-10.18,3.21-6.04,5.66-12.59,9.62-18.19ZM804.04,313.27c-1.63-1.61-5.28-1.57-7.41-.9-3.48,1.1-16.46,11.44-21.72,14.29-19.57,10.59-42.66,16.87-64.31,21.81-8.65,1.97-24.04,2.92-31.16,5.9-7.4,3.1-5.3,10.9,3.05,10.71,7.95-.18,23.03-3.89,31.38-5.7,27.17-5.9,56.45-14.63,79.45-30.65,3.84-2.68,16.24-10.01,10.73-15.45Z"/>
      <path class="cls-1-clothe-p" d="M1012.47,542.09h-89.37c2.93-10.65,7.6-20.75,10.59-31.4,9.87-35.14,10.62-71.98,9.04-108.23,1.48-2,22.25,22.45,23.94,24.58,26.16,33.1,43.44,72.44,45.8,115.06Z"/>
      <path class="cls-3-clothe-p" d="M647.37,542.09h-16.35l-10.92-128.1c.14-.95,14.02-1.08,15.35-.15,1.98,1.38.8,13.24.98,16.48.92,16.62,1.87,33.55,3.32,50.13,1.8,20.61,4.95,41.15,7.62,61.64Z"/>
      <path class="cls-4-clothe-p" d="M269.19,51.18c4.38,21.06,12.88,42.64,9.81,64.36-18.65,4.4-31.09,21.3-40.09,36.79-2.12,3.65-4.61-1.92-6.14-4.16-11.84-17.27-22.7-48.55-11.34-67.89,9.31-15.85,32.28-22.12,47.76-29.11Z"/>
      <path class="cls-4-clothe-p" d="M281.18,127.55c-.02,22.63,1.07,45.5-4.36,67.64-8.91-7.38-18.74-14.42-26.18-23.43-6.65-8.04-4.64-9.1-.16-17.67,6.53-12.51,16.88-23.4,30.7-26.54Z"/>
      <path class="cls-3-clothe-p" d="M643,354.45l3.22,46.86c-1.31,1.35-26.16,1.5-29.95,1.19-4.81-.4-9.2-1.09-9.14-6.99l8.64-44.33c9.64,2.96,16.86,7.99,27.23,3.27ZM632.87,395.57c6.34-5.89,6.54-29.63-6.51-26.71-11.52,2.58-6.21,38.53,6.51,26.71Z"/>
      <path class="cls-3-clothe-p" d="M628.62,323.05c14.68-1.26,20.52,20.15,7.03,22.48-14.51,2.5-24.08-21.02-7.03-22.48Z"/>
    </g>
    <path class="cls-2-clothe-p" d="M632.87,395.57c-12.72,11.82-18.03-24.13-6.51-26.71,13.05-2.92,12.85,20.82,6.51,26.71Z"/>
    <path class="cls-4-clothe-p" d="M743.27,287.36c-17.58,5.41-35.7,6.27-53.27,10.37-2.39-3.24-4-6.8-4.45-10.69,39.34-8.06,71.08-37.08,95.84-67.16.88-1.07,1.74-2.14,2.58-3.2.18.36.33.74.43,1.15,8.65,34.34-8.49,59.48-41.13,69.53Z"/>
  </g>
</svg>