<?xml version="1.0" encoding="UTF-8"?>
<svg id="Calque_2" data-name="Calque 2" xmlns="http://www.w3.org/2000/svg" width="281"
  height="93"
  viewBox="0 0 281 93">
  <defs>
    <style>
      .cls-1-t-logo {
        fill: #b7e3f9;
      }

      .cls-2-t-logo {
        fill: #537fa2;
      }

      .cls-3-t-logo {
        fill: #010000;
      }
    </style>
  </defs>
  <g id="Calque_1-2" data-name="Calque 1" transform="translate(0, 0) scale(0.4)">
    <g>
      <path class="cls-2-t-logo" d="M964.04,268.2h-107.89l4.28-40.78c-1.36-9.65-9.76-9.24-11.66.16-1.7,8.44-2.81,22.45-3.51,31.36-.24,3.07.12,6.19-.01,9.26H221.86l8.76-44.19c.25-9.19-7.98-9.7-11.28-1.37-4.98,12.61-5.85,32-8.39,45.56H10.43c6.69-44.4,15.81-92,40.3-130.26,18.62-29.09,49.62-57.65,80.64-73.03,30.1-14.92,63.71-19.67,94.3-33.27,111.98,42.52,231.26,83.17,353.1,74.16,43.53-3.22,103.78-14.57,139.96-39.87,8.03-5.62,13.28-13.5,21.52-18.68,11.68,2.61,23.26,5.89,35.05,8.08,76.9,14.26,120.9-.59,158.07,81.69,18.3,40.51,25.36,87.27,30.67,131.17Z"/>
      <path class="cls-3-t-logo" d="M976.03,268.2h-11.99c-5.31-43.9-12.37-90.66-30.67-131.17-37.18-82.28-81.17-67.44-158.07-81.69-11.79-2.19-23.37-5.46-35.05-8.08-8.24,5.17-13.49,13.06-21.52,18.68-36.18,25.3-96.42,36.65-139.96,39.87-121.83,9.01-241.12-31.64-353.1-74.16-30.59,13.6-64.2,18.35-94.3,33.27-31.02,15.38-62.02,43.94-80.64,73.03-24.49,38.26-33.61,85.86-40.3,130.26H.62c-1.88-9.14.95-20.13,2.68-29.47C20.39,146.8,61.56,76.86,152.63,43.67c23.34-8.51,50.83-11.87,71.28-25.71C231.5,12.83,243.18-.05,251.84,0c4.38.03,24.43,10.42,30.78,12.9,33.27,12.97,71.17,24.56,105.75,33.75,73.67,19.57,219.08,48.73,281.43-5.67,4.95-4.32,14.62-17.64,20.14-18.09,3.32-.27,8.66,1.39,12.14,2.13,22.15,4.74,44.21,12.59,66.68,17.24,78.76,16.32,131.4-.6,172.25,83.87,21.31,44.06,28.01,94.05,35.03,142.07ZM251,12.24c-1.8.36-12.6,8.16-13.37,9.63-.81,1.56-.74,1.67.61,2.71,56.09,21.69,113.41,41.02,172.14,54.55,66.54,15.32,128.4,21.53,196.58,12.36,41.06-5.52,89.28-17.63,119.47-47.25.04-1.78-30.43-9-34.25-9.29-4.76,3.42-8.46,8.86-13.16,13.07-66.32,59.44-214.19,30.72-293.05,9.75-39.24-10.43-81.51-23.73-119.07-38.96-3.6-1.46-13.05-7.14-15.89-6.58Z"/>
      <path class="cls-3-t-logo" d="M221.86,268.2h-10.9c2.54-13.56,3.4-32.95,8.39-45.56,3.29-8.33,11.52-7.82,11.28,1.37l-8.76,44.19Z"/>
      <path class="cls-3-t-logo" d="M856.15,268.2h-10.9c.13-3.07-.23-6.19.01-9.26.7-8.91,1.81-22.92,3.51-31.36,1.9-9.4,10.29-9.81,11.66-.16l-4.28,40.78Z"/>
      <path class="cls-2-t-logo" d="M251,12.24c2.84-.56,12.29,5.12,15.89,6.58,37.56,15.23,79.83,28.53,119.07,38.96,78.86,20.96,226.74,49.68,293.05-9.75,4.7-4.21,8.4-9.65,13.16-13.07,3.83.29,34.3,7.51,34.25,9.29-30.19,29.62-78.41,41.73-119.47,47.25-68.17,9.17-130.04,2.96-196.58-12.36-58.73-13.52-116.05-32.86-172.14-54.55-1.35-1.04-1.42-1.15-.61-2.71.77-1.47,11.57-9.28,13.37-9.63Z"/>
    </g>
    <g>
      <g>
        <path class="cls-1-t-logo" d="M637.59,169.14l3.26,4.89v6.6l-3.26,3.3h-11.49v13.73h-3.26v-28.52h14.75ZM626.14,182.96l3.3-1.92h6.89l1.26-1.3v-5.26l-1.59-2.4h-9.86v10.88Z"/>
        <path class="cls-1-t-logo" d="M665.3,169.14v2.97h-7.37v22.57h7.37v2.97h-18.01v-2.97h7.38v-22.57h-7.38v-2.97h18.01Z"/>
        <path class="cls-1-t-logo" d="M675.69,169.14h11.45l2.69,4.07-2.08,2.2-2.16-3.34h-8.68l-1.26,1.35v18.95l1.59,2.36h8.6l2.44-2.44,1.63,2.44-2.77,2.93h-11.49l-3.26-4.89v-20.25l3.3-3.38Z"/>
        <path class="cls-1-t-logo" d="M715.62,169.14l-11.16,11.33,11.78,17.19h-3.5l-10.35-15.03-4.97,5.22v9.82h-3.26v-28.52h3.26v14.46l13.93-14.46h4.28Z"/>
        <path class="cls-1-t-logo" d="M621.21,202.96h21.27v2.93h-12.14l3.18,1.96v23.63h-3.3v-23.22l-1.55-2.36h-7.46v-2.93Z"/>
        <path class="cls-1-t-logo" d="M660.94,202.96l4.4,6.4v4.07l-4.03,4.12,4.03,5.83v8.11h-3.3v-7.74l-4.12-5.99h-4.2l-3.22-2v15.73h-3.26v-28.52h13.69ZM650.51,214.77h9.45l2.08-2.08v-2.89l-2.69-3.91h-8.84v8.88Z"/>
        <path class="cls-1-t-logo" d="M689.7,202.96v28.52h-3.26v-13.04h-11.41v13.04h-3.26v-21.72l6.6-6.8h11.33ZM675.04,215.5h11.41v-9.62h-6.89l-4.52,4.65v4.97Z"/>
        <path class="cls-1-t-logo" d="M696.59,202.96h12.55l5.5,8.19v16.95l-3.26,3.38h-14.79v-28.52ZM699.85,205.89v22.65h10.19l1.3-1.34v-15.65l-3.79-5.66h-7.7Z"/>
        <path class="cls-1-t-logo" d="M738.64,202.96v2.93h-13.53l-1.26,1.35v7.54h9.45v2.97h-9.45v8.43l1.59,2.36h13.2v2.93h-14.79l-3.26-4.89v-20.25l3.3-3.38h14.75Z"/>
      </g>
      <g>
        <polygon class="cls-1-t-logo" points="753.04 193.54 755.46 188.12 749.35 178.71 743.96 178.72 743.96 181.06 748.09 181.05 752.81 188.33 750.9 192.59 753.04 193.54"/>
        <path class="cls-1-t-logo" d="M758.78,198.67l3.52-2.38v-6.97l-15.9-22.48.35-1.64,8.08-3.21v-4.11l-4.28-2.7-8.3,2.74-2.68-.57-6.98,4.53-.42,1.97c-2.06,1.33-10,7.22-8.96,18.8l.08.87,3.55.72.41-.76c.04-.06,3.5-6.37,9.74-11.8l1.55.48,14.06,24.46,6.18,2.03ZM759.97,195.05l-1.54,1.04-4.24-1.39-14.07-24.48-3.65-1.14-.49.41c-5.64,4.75-9.16,10.16-10.34,12.13l-.15-.03c-.52-10.86,7.94-15.76,8.31-15.97l.46-.26.43-2.03,5.35-3.47,2.35.5,7.86-2.59,2.26,1.42v1.23l-7.77,3.09-.82,3.87,16.06,22.71v4.98Z"/>
        <rect class="cls-1-t-logo" x="737.52" y="167.99" width="9.46" height="2.34" transform="translate(37.52 457.1) rotate(-35.06)"/>
      </g>
      <path class="cls-1-t-logo" d="M721.03,197.83h7.66v-7.66h-7.66v7.66ZM726.6,195.75h-3.48v-3.48h3.48v3.48Z"/>
    </g>
  </g>
</svg>