<?xml version="1.0" encoding="UTF-8"?>
<svg id="Calque_2" data-name="Calque 2" xmlns="http://www.w3.org/2000/svg" width="281"
  height="93"
  viewBox="0 0 281 93"
  fill="none">
  <defs>
    <style>
      .cls-1-t {
        fill: #010000;
      }

      .cls-2 {
        fill: #57ff6d;
      }
    </style>
  </defs>
  <g id="Calque_1-2" data-name="Calque 1" transform="translate(-51.85, 235) scale(0.3)">
    <g>
      <path fill="#57ff6d;" d="M964.04,268.2h-107.89l4.28-40.78c-1.36-9.65-9.76-9.24-11.66.16-1.7,8.44-2.81,22.45-3.51,31.36-.24,3.07.12,6.19-.01,9.26H221.86l8.76-44.19c.25-9.19-7.98-9.7-11.28-1.37-4.98,12.61-5.85,32-8.39,45.56H10.43c6.69-44.4,15.81-92,40.3-130.26,18.62-29.09,49.62-57.65,80.64-73.03s63.71-19.67,94.3-33.27c111.98,42.52,231.26,83.17,353.1,74.16,43.53-3.22,103.78-14.57,139.96-39.87,8.03-5.62,13.28-13.5,21.52-18.68,11.68,2.61,23.26,5.89,35.05,8.08,76.9,14.26,120.9-.59,158.07,81.69,18.3,40.51,25.36,87.27,30.67,131.17Z"/>
      <path class="cls-1-t" d="M976.03,268.2h-11.99c-5.31-43.9-12.37-90.66-30.67-131.17-37.18-82.28-81.17-67.44-158.07-81.69-11.79-2.19-23.37-5.46-35.05-8.08-8.24,5.17-13.49,13.06-21.52,18.68-36.18,25.3-96.42,36.65-139.96,39.87-121.83,9.01-241.12-31.64-353.1-74.16-30.59,13.6-64.2,18.35-94.3,33.27s-62.02,43.94-80.64,73.03c-24.49,38.26-33.61,85.86-40.3,130.26H.62c-1.88-9.14.95-20.13,2.68-29.47C20.39,146.8,61.56,76.86,152.63,43.67c23.34-8.51,50.83-11.87,71.28-25.71C231.5,12.83,243.18-.05,251.84,0c4.38.03,24.43,10.42,30.78,12.9,33.27,12.97,71.17,24.56,105.75,33.75,73.67,19.57,219.08,48.73,281.43-5.67,4.95-4.32,14.62-17.64,20.14-18.09,3.32-.27,8.66,1.39,12.14,2.13,22.15,4.74,44.21,12.59,66.68,17.24,78.76,16.32,131.4-.6,172.25,83.87,21.31,44.06,28.01,94.05,35.03,142.07ZM251,12.24c-1.8.36-12.6,8.16-13.37,9.63-.81,1.56-.74,1.67.61,2.71,56.09,21.69,113.41,41.02,172.14,54.55,66.54,15.32,128.4,21.53,196.58,12.36,41.06-5.52,89.28-17.63,119.47-47.25.04-1.78-30.43-9-34.25-9.29-4.76,3.42-8.46,8.86-13.16,13.07-66.32,59.44-214.19,30.72-293.05,9.75-39.24-10.43-81.51-23.73-119.07-38.96-3.6-1.46-13.05-7.14-15.89-6.58Z"/>
      <path class="cls-1-t" d="M221.86,268.2h-10.9c2.54-13.56,3.4-32.95,8.39-45.56,3.29-8.33,11.52-7.82,11.28,1.37l-8.76,44.19Z"/>
      <path class="cls-1-t" d="M856.15,268.2h-10.9c.13-3.07-.23-6.19.01-9.26.7-8.91,1.81-22.92,3.51-31.36,1.9-9.4,10.29-9.81,11.66-.16l-4.28,40.78Z"/>
      <path fill="#57ff6d;" d="M251,12.24c2.84-.56,12.29,5.12,15.89,6.58,37.56,15.23,79.83,28.53,119.07,38.96,78.86,20.96,226.74,49.68,293.05-9.75,4.7-4.21,8.4-9.65,13.16-13.07,3.83.29,34.3,7.51,34.25,9.29-30.19,29.62-78.41,41.73-119.47,47.25-68.17,9.17-130.04,2.96-196.58-12.36-58.73-13.52-116.05-32.86-172.14-54.55-1.35-1.04-1.42-1.15-.61-2.71.77-1.47,11.57-9.28,13.37-9.63Z"/>
    </g>
  </g>
</svg>