<?xml version="1.0" encoding="UTF-8"?>
<svg id="Calque_2" data-name="Calque 2" xmlns="http://www.w3.org/2000/svg" viewBox="0 0 687.95 281.32">
    <g transform="translate(15, 95) scale(0.3)">
    <title>glasses - ski</title>
      <path fill="#090606" d="M156.27,184.46c-6.69.1-13.46-.3-20.16-.1-29.59.9-60.78,3.07-90.46,1.18-19.89-1.27-32.42-5.22-37.23-26.01C4,140.45-1.67,101.23.47,82.41s30.78-12.08,44.18-12.5c35.37-1.11,64.14.35,99.14,2.13,7.19.36,14.47-.29,21.67.08,4.15-9.97,4.27-23.31,12.76-31.05,6.56-5.98,43.65-16.71,54.38-19.74C309.19-.31,381.2,1.2,459.88.09c53.51-.75,121.44,2.94,172.46,20.37,58.81,20.1,57.06,95.14,54.77,145.99-2.37,52.69-16.5,75.41-64.38,95.92-42.29,18.12-68.54,28.28-100.05-13.24-7.46-9.84-26.25-46.99-32.98-50.99-6.04-3.59-12.05,2.07-16.76,5.94-35.2,28.92-37.98,70.18-91.59,76.32-47.85,5.48-138.17-14.41-182.5-34.39-28.17-12.69-37.05-32-42.59-61.55ZM474.32,10.18c-89.65.51-197.98.68-281.52,35.66-12.23,5.12-12.76,15.65-15.92,27.7-9.8,37.32-8.99,72.95-9.55,111.3,6.45,24.15,10.43,38.71,34.02,49.94,43.4,20.66,129.07,38.09,176.73,34.71,45.6-3.24,53.11-41.66,81.72-68.75,15.45-14.62,29.09-23.78,44.64-3.17,16.35,21.67,31.87,70.27,65.46,69.83,15.43-.2,61.64-19.58,75-28.66,26.94-18.3,30.14-50,31.31-79.93,1.85-47.38,3.27-111.43-51.27-128.77-42.29-13.44-106.2-20.12-150.62-19.87ZM162.85,84.05c-3.78-.19-7.65.27-11.43-.02-41.51-3.1-85.85-6.12-127.57-3.31-1.7.11-10.99,1.29-11.47,1.61-2.44,1.64-.34,24.04.08,28.43,1.04,10.65,5.34,45.97,9.36,53.9,4.29,8.45,20.56,9.39,29.33,9.92,18.47,1.11,37.23-.78,55.53-1.13,16.19-.3,32.44.72,48.61-.43,4.34-29.5-.29-59.77,7.56-88.97Z"/>
      <path fill="#394b57" d="M474.32,10.18c44.42-.25,108.33,6.42,150.62,19.87,54.54,17.34,53.12,81.39,51.27,128.77-1.17,29.93-4.37,61.63-31.31,79.93-13.36,9.08-59.57,28.45-75,28.66-33.59.44-49.11-48.16-65.46-69.83-15.55-20.62-29.19-11.46-44.64,3.17-28.61,27.08-36.12,65.51-81.72,68.75-47.66,3.38-133.33-14.05-176.73-34.71-23.59-11.23-27.57-25.79-34.02-49.94.55-38.34-.25-73.97,9.55-111.3,3.16-12.05,3.69-22.58,15.92-27.7C276.34,10.86,384.67,10.7,474.32,10.18ZM412.2,22.18c-22.42,1.12-44.5,5.58-66.81,7.3-66.05,5.11-157.16-4.47-161.88,84.51-3.61,68.07,6.68,114.3,78.5,130.97,33.48,7.77,115.24,19.42,144.22,1.43,33.59-20.85,56.56-118.73,106.25-51.42,26.1,35.35,35.77,69.73,90.13,53.82,39.39-11.53,56.92-37.56,59.42-77.97,1.36-22,.51-56.45-1.15-78.58-1.51-20.13-7.52-28.01-24.32-37.84-32.28-18.89-61.61-18.48-97.17-22.73-43.2-5.16-83.22-11.69-127.2-9.49Z"/>
      <path fill="#394b57" d="M162.85,84.05c-7.85,29.2-3.22,59.47-7.56,88.97-16.17,1.15-32.42.13-48.61.43-18.3.34-37.05,2.24-55.53,1.13-8.76-.53-25.04-1.46-29.33-9.92-4.02-7.93-8.33-43.25-9.36-53.9-.43-4.38-2.52-26.78-.08-28.43.48-.32,9.78-1.49,11.47-1.61,41.71-2.82,86.06.2,127.57,3.31,3.79.28,7.65-.17,11.43.02Z"/>
      <path fill="#090606" d="M412.2,22.18c43.98-2.2,84,4.32,127.2,9.49,35.56,4.25,64.9,3.84,97.17,22.73,16.8,9.83,22.81,17.71,24.32,37.84,1.66,22.12,2.51,56.58,1.15,78.58-2.5,40.41-20.04,66.44-59.42,77.97-54.36,15.91-64.03-18.46-90.13-53.82-49.69-67.31-72.66,30.57-106.25,51.42-28.98,17.99-110.74,6.34-144.22-1.43-71.83-16.66-82.11-62.9-78.5-130.97,4.71-88.98,95.82-79.4,161.88-84.51,22.32-1.73,44.4-6.18,66.81-7.3Z"/>
    </g>

</svg>