<?xml version="1.0" encoding="UTF-8"?>
<svg id="Calque_2" data-name="Calque 2" xmlns="http://www.w3.org/2000/svg" viewBox="0 0 774.09 623.09">
  <defs>
    <style>
      .cls-1mask-m {
        fill: #2f2f2e;
      }

      .cls-2-mask-m {
        fill: #998c7a;
      }

      .cls-3-mask-m {
        fill: #090606;
      }
    </style>
  </defs>
  <g id="Calque_1-2" data-name="Calque 1" transform="translate(10, 50) scale(0.29)">
    <g>
      <path class="cls-3-mask-m"  d="M306.59,32.12c10.2-1.89,20.05-5,30.28-6.91,46.59-8.7,109.31-6.53,155.67,3.49,9.3,2.01,23.38,8.29,32.3,6.82,5.91-.97,21.9-16.59,29.29-20.83,14.66-8.41,31.06-11.82,47.25-5.46,37.97,14.92,36.39,68.6,14.7,96.66,22.9,22.96,36.72,59.51,40.13,91.55,2.27,21.3-3.21,55.98,14.75,70.26,15.94,12.68,36.82,20.42,53.94,35.43,77.11,67.59,58.26,199.3-19.73,258.22-106.46,80.43-270.01,70.08-392.49,37.38-76.17-20.33-120.9-56.96-160.85-124.69-27.05-45.86-32.83-100.41-30.72-152.92l-101.89-2.19c-12.81-1.64-18.26-5.61-19.13-19.01-.54-8.44,1.17-32.96,4.52-40.25,5.34-11.61,17.72-10.84,28.75-10.46l89.93,9.8c2.66-49.79,19-98.27,43.4-141.33,3.24-5.71,17.64-24.86,18.52-28.43.58-2.34-3.79-15.84-4.15-20.44-1.93-24.68,9.27-45.38,30.17-58.07,33.34-20.26,74.29-11.16,95.35,21.38ZM240.75,11.92c-30.39,3.69-50.81,28.33-47.58,58.96.87,8.3,13.39,39.02,12.78,41.3-.31,1.16-2.73,3.62-3.88,3.91-7.46-.14-8.51-7.88-11.76-12.9-33.12,46.6-51.92,102.53-56.12,159.65-4.89,66.6-6.44,148.92,28.96,207.51,32.69,54.12,71.52,92.25,132.58,111.55,121.88,38.53,309.96,51.81,412.81-37.87,63.91-55.73,75.58-173.81,8.72-232.17-17.04-14.87-38.13-22.65-53.94-35.43-21.63-17.49-15.94-46.63-18.02-71.35-2.33-27.78-13.66-65.25-32.66-86.14-4.25-4.67-24.47-20.89-24.87-25.21-.32-3.44,3.31-6.17,6.75-5.83,6.21.63,9.53,10.84,13.09,9.75,1.5-.46,7.44-13.32,8.29-15.72,15.13-42.48-14.18-82.54-58.11-55.93-11.28,6.83-20.94,20.83-35.06,21.64-10.3.59-33.97-8.21-46.33-10.44-36.3-6.54-81.43-6.54-118.26-3.77-6.99.53-38.35,6.04-43.05,9.27-2.24,1.53,2.51,5.09,2,8.45-.67,4.45-6.27,7.32-9.68,3.55-13.46-26.38-34.84-46.64-66.68-42.78ZM122.08,271.12c-24.01-3-48.21-6.96-72.36-8.83-6.91-.54-25.95-2.51-31.39-.88-3.62,1.08-4.49,8.06-4.98,11.36-.81,5.36-2.37,27.34-1.04,31.29,1.02,3.04,12.27,3.83,15.58,4.04,9.22.59,19.15.83,28.34,1.09,21.59.62,43.31-.56,64.9-.04l.96-38.03Z"/>
      <path class="cls-2-mask-m" d="M240.75,11.92c31.84-3.87,53.22,16.39,66.68,42.78,3.41,3.77,9.01.9,9.68-3.55.51-3.36-4.24-6.92-2-8.45,4.71-3.23,36.06-8.74,43.05-9.27,36.83-2.77,81.96-2.76,118.26,3.77,12.36,2.23,36.03,11.03,46.33,10.44,14.11-.81,23.78-14.8,35.06-21.64,43.93-26.61,73.24,13.45,58.11,55.93-.85,2.4-6.8,15.26-8.29,15.72-3.56,1.09-6.88-9.12-13.09-9.75-3.44-.35-7.07,2.38-6.75,5.83.4,4.32,20.62,20.53,24.87,25.21,18.99,20.89,30.33,58.36,32.66,86.14,2.07,24.72-3.62,53.86,18.02,71.35,15.81,12.78,36.9,20.55,53.94,35.43,66.86,58.36,55.19,176.44-8.72,232.17-102.86,89.69-290.93,76.4-412.81,37.87-61.06-19.3-99.89-57.43-132.58-111.55-35.4-58.59-33.86-140.91-28.96-207.51,4.2-57.12,22.99-113.06,56.12-159.65,3.25,5.02,4.3,12.76,11.76,12.9,1.15-.29,3.57-2.75,3.88-3.91.61-2.28-11.9-33-12.78-41.3-3.23-30.63,17.19-55.27,47.58-58.96ZM585.12,176.41c-29.93,4.33-19.9,60.28,9.76,47.95,21.85-9.08,14.92-51.52-9.76-47.95ZM395.8,208.37c0-13.73-11.13-24.86-24.86-24.86s-24.86,11.13-24.86,24.86,11.13,24.86,24.86,24.86,24.86-11.13,24.86-24.86ZM148.06,262.47c-7.91,1.17-4.86,23.17-5.11,29.83s-4.94,32.28,3.96,33.03c2.52.21,5.39-4.68,5.74-6.98,1.49-9.73.82-21.6,1.16-31.53.18-5.35,4.74-25.9-5.76-24.35ZM452.2,310.56c-24.96,2.41-35.99,20.41-30.66,44.19,1.38,6.17,8.51,29.22,17.82,23.61,5.32-3.21-2.21-12.79-3.8-16.92-10.53-27.27-.09-42.18,29.27-39.08,13.4,1.41,30.73,11.45,40.49,20.54,4.19,3.9,15.32,21.49,21.14,13.56,2.85-3.88-1.29-8.32-3.72-11.36-15.67-19.63-44.72-37.03-70.53-34.54ZM698.42,377.48c2.46-2.05,5.05-13.12,5.63-16.69,5.51-33.94-14.17-60.9-48.93-41.3-7.84,4.42-27.98,21.55-28.31,30.67-.12,3.36,3.17,6.5,6.55,5.44,4.16-1.3,9.29-11.65,13.01-15.42,22.65-22.96,50.74-23.5,46.78,16.26-.43,4.27-4.72,15.92-4.06,18.41.99,3.76,6.16,5.3,9.33,2.65ZM681.01,342.12c-9.71-9.17-39.77,20.53-40.96,29.98-.51,4.07,4.5,10.19,8.98,10.01,9.26-.37,33.45-24.06,34.24-33.47.14-1.63-1.22-5.54-2.26-6.53ZM496.83,380.79c9.43-8.91-14.61-25.06-21.5-28.62-20.41-10.53-30.59-.46-13.11,15.29,5.59,5.04,28.01,19.56,34.61,13.33ZM315.93,576.98c1.92-2.63.81-5.43-.83-7.91-3.99-6.03-19.02-16.49-25.1-22.85-24.4-25.52-35.32-52.23-22.6-86.96,2.08-5.68,12.65-24.31,12.84-27.6.47-8.07-7.93-6.44-12.22-.11-25.65,37.87-22.42,81.13,7.28,115.2,4.43,5.09,30.4,30.95,34.97,31.59,1.55.22,4.53-.28,5.65-1.36ZM717.09,501.88c.78-1.7,1.6-3.7,1.1-5.59-1.09-4.16-21.8-13.66-26.7-15.89-89.46-40.69-236.11-38.85-324.47,4.36-10.24,5.01-38.29,20.61-45,28.57-2.19,2.6-4.15,6.95-1.49,9.99l4.38,1.15c41.48-31.96,89.41-50.08,141.28-57.15,67.65-9.21,149.37-6.39,212.88,20.04,8.23,3.42,22.41,12.33,29.42,14.17,2.81.74,5.74.81,8.59.35ZM666.86,532.3c1.89-2.68.96-6.31-1.5-8.33-3.47-2.86-21.72-9.18-27.1-11.04-72.93-25.18-141.26-23.44-211.64,8.55-4.23,1.93-18.96,8.62-20.49,12.2-.76,1.79-1.32,5.89.45,7.13,4.25,2.99,19.22-6.67,24.08-8.75,67.27-28.72,123.05-33.45,193.7-11.77,10.07,3.09,26.37,11.55,34.86,13.14,2.67.5,5.33.39,7.64-1.12Z"/>
      <path class="cls-1mask-m" d="M122.08,271.12l-.96,38.03c-21.59-.52-43.31.66-64.9.04-9.18-.26-19.11-.5-28.34-1.09-3.31-.21-14.55-1-15.58-4.04-1.33-3.95.24-25.94,1.04-31.29.5-3.3,1.37-10.28,4.98-11.36,5.44-1.63,24.47.35,31.39.88,24.15,1.87,48.35,5.83,72.36,8.83Z"/>
      <path class="cls-3-mask-m" d="M717.09,501.88c-2.85.46-5.78.39-8.59-.35-7.01-1.83-21.2-10.74-29.42-14.17-63.51-26.43-145.22-29.26-212.88-20.04-51.87,7.06-99.8,25.19-141.28,57.15l-4.38-1.15c-2.67-3.04-.7-7.4,1.49-9.99,6.71-7.96,34.76-23.56,45-28.57,88.35-43.21,235-45.05,324.47-4.36,4.9,2.23,25.61,11.73,26.7,15.89.5,1.89-.32,3.89-1.1,5.59Z"/>
      <path class="cls-3-mask-m" d="M666.86,532.3c-2.32,1.51-4.97,1.62-7.64,1.12-8.49-1.58-24.78-10.05-34.86-13.14-70.65-21.68-126.43-16.95-193.7,11.77-4.87,2.08-19.83,11.74-24.08,8.75-1.77-1.25-1.21-5.34-.45-7.13,1.53-3.58,16.25-10.27,20.49-12.2,70.38-31.99,138.71-33.73,211.64-8.55,5.38,1.86,23.63,8.18,27.1,11.04,2.46,2.03,3.39,5.65,1.5,8.33Z"/>
      <path class="cls-3-mask-m" d="M315.93,576.98c-1.12,1.08-4.1,1.58-5.65,1.36-4.58-.65-30.54-26.51-34.97-31.59-29.7-34.08-32.93-77.34-7.28-115.2,4.29-6.33,12.69-7.96,12.22.11-.19,3.3-10.76,21.92-12.84,27.6-12.71,34.73-1.8,61.44,22.6,86.96,6.08,6.36,21.11,16.81,25.1,22.85,1.64,2.48,2.75,5.29.83,7.91Z"/>
      <circle class="cls-3-mask-m" cx="370.94" cy="208.37" r="24.86"/>
      <path class="cls-3-mask-m" d="M452.2,310.56c25.81-2.49,54.87,14.91,70.53,34.54,2.43,3.04,6.56,7.48,3.72,11.36-5.82,7.93-16.95-9.65-21.14-13.56-9.76-9.09-27.09-19.13-40.49-20.54-29.37-3.1-39.8,11.81-29.27,39.08,1.59,4.13,9.13,13.71,3.8,16.92-9.31,5.61-16.44-17.44-17.82-23.61-5.32-23.78,5.7-41.78,30.66-44.19Z"/>
      <path class="cls-3-mask-m" d="M585.12,176.41c24.68-3.57,31.61,38.86,9.76,47.95-29.66,12.33-39.69-43.62-9.76-47.95Z"/>
      <path class="cls-3-mask-m" d="M698.42,377.48c-3.18,2.65-8.34,1.11-9.33-2.65-.66-2.49,3.64-14.14,4.06-18.41,3.97-39.76-24.13-39.22-46.78-16.26-3.72,3.77-8.85,14.11-13.01,15.42-3.39,1.06-6.68-2.07-6.55-5.44.33-9.11,20.47-26.25,28.31-30.67,34.76-19.59,54.44,7.36,48.93,41.3-.58,3.58-3.17,14.64-5.63,16.69Z"/>
      <path class="cls-3-mask-m" d="M681.01,342.12c1.04.99,2.4,4.9,2.26,6.53-.79,9.4-24.98,33.1-34.24,33.47-4.48.18-9.49-5.94-8.98-10.01,1.19-9.45,31.25-39.15,40.96-29.98Z"/>
      <path class="cls-3-mask-m" d="M496.83,380.79c-6.6,6.24-29.02-8.29-34.61-13.33-17.48-15.75-7.3-25.82,13.11-15.29,6.89,3.56,30.93,19.7,21.5,28.62Z"/>
      <path class="cls-3-mask-m" d="M148.06,262.47c10.49-1.55,5.94,19,5.76,24.35-.34,9.93.33,21.8-1.16,31.53-.35,2.3-3.22,7.19-5.74,6.98-8.9-.75-4.2-26.68-3.96-33.03s-2.8-28.66,5.11-29.83Z"/>
    </g>
  </g>
</svg>