<?xml version="1.0" encoding="UTF-8"?>
<svg id="Calque_2" data-name="Calque 2" xmlns="http://www.w3.org/2000/svg" viewBox="0 0 752.48 599.8">
  <defs>
    <style>
      .cls-1-mask-p {
        fill: #e8e6e0;
      }

      .cls-2-mask-p {
        fill: #9b5223;
      }

      .cls-3-mask-p {
        fill: #f0ece6;
      }

      .cls-4-mask-p {
        fill: #f9fbf9;
      }

      .cls-5-mask-p {
        fill: #f5f0ea;
      }

      .cls-6-mask-p {
        fill: #f5f1ea;
      }

      .cls-7-mask-p {
        fill: #467e30;
      }

      .cls-8-mask-p {
        fill: #477f30;
      }

      .cls-9-mask-p {
        fill: #090606;
      }

      .cls-10-mask-p {
        fill: #498231;
      }

      .cls-11-mask-p {
        fill: #498332;
      }

      .cls-12-mask-p {
        fill: #4a8332;
      }

      .cls-13-mask-p {
        fill: #534f4f;
      }
    </style>
  </defs>
  <g id="Calque_1-2" data-name="Calque 1" transform="translate(13, 50) scale(0.29)">
    <g>
      <path class="cls-9-mask-p" d="M446.83,46.57c2.44,1.43,16.09-10.1,19.54-12.28,70.08-44.34,133.58-33.19,171.21,43.31,2.16,4.4,8.16,23.76,9.07,24.71,1.39,1.44,14.97,7.13,18.77,9.57,8.41,5.39,20.1,18.17,27.14,21.91,4.41,2.34,13.36,3.16,19.33,5.74,11.06,4.78,22.04,15.23,25.02,27.29.94,3.79-.24,7.15.48,9.29.65,1.92,3.63,4.92,4.81,7.22,9.76,18.94,13.81,25.93,6.65,47.35-11.63,34.79-34.23,66.59-68.95,80.91,15.9,13.68,29.53,35.53,35.16,55.83,1.44,5.19,1.77,13.78,3.19,17.51.95,2.5,3.87,1.91,5.31,3.7.81,1.01,7.24,14.52,8.1,16.68,7.8,19.6-8.16,36.99-24.47,45.84,10.89,22.45-11.5,40.29-30.28,47.61-4.43,1.73-11.58,2.52-15.03,4.59-6.41,3.84-17.74,20.3-24.48,26.75-114.21,109.37-360.12,80.84-470.84-21.8-47.39-43.93-58.54-110.04-55.61-172.26.26-5.59,5.31-41.56,3.17-42.87-26.85-2.06-54.19-1.94-80.71-7.02-31.46-6.03-37.81-13.48-30.87-45.44,1.4-6.46,3.4-19.62,11-20.66,39.74,2.76,79.69,4.03,119.24,8.69,11.99-48.65,32.75-97.47,61.24-138.77C235.27,30.18,297.19-10.43,372.78,2.36c30.41,5.14,51.49,19.51,72.31,41.08.85.88,1.48,2.97,1.75,3.13ZM464.08,95.77c-15.93-36.8-41.97-68.74-81.99-79.84-117.15-32.51-200.33,88.69-229.99,184.72-11.82,38.28-24.14,74.71-28.03,114.74-11.83,121.69,22.45,187.58,133.3,237.22,86.94,38.94,199.38,49.62,289.82,16.97,36.6-13.21,72.16-32.69,96.72-63.49-21.82.49-43.94,3.52-65.98,2.77-67.03-2.28-129.33-27.33-193.96-30.55-33.39-1.66-67.77,4.32-100.31,2.22-65.1-4.2-78.45-72.66-16.31-93.8,49.09-16.7,109.09,7.91,157.7,18.89,71.65,16.19,210.01,36.49,273.26-6.43,7.24-4.91,9.4-4.5,8.79-14.06-1.03-15.95-12.44-40.3-22.41-52.78-4.49-5.62-10.87-9.62-14.59-15.95-10.82,3.16-21.34,6.98-32.53,8.98-20.25,3.62-49.76,4.69-70.01.95-5.1-.94-17.07-2.94-16.1-9.62,1.23-8.49,14.16-1.78,19.16-1.08,57.48,8.08,134.83-8.05,157.2-68.38-23.14,8.52-47,15.97-71.54,19.46-22.84,3.24-45.46,2.29-68.49,2.32l-57.64-7.54c-1.05.32-4.51,12.93-5.93,15.92-28.27,59.56-155.23,50.95-204.01,24.89-4.86-2.59-25.64-15.95-26.79-20.15-.84-3.06,2.27-6.76,5.46-6.58,3.7.22,21.15,13.95,26.78,16.92,31.51,16.67,92.9,22.92,127.57,16.36,27.82-5.26,67.53-21.89,64.25-56.16-11.44,9.47-24.7,12.35-39,14.94-70.22,12.72-105.02,9.47-165.16-28.2-2.1-1.31-4.02-4.51-5.85-5.05-9.86-2.93-25.54.92-39.53-4.06-17.88-6.37-17.72-20.42-.76-27.96,13.94-6.19,32.83-7.97,47.87-13.16,39.99-13.81,60.51-39.01,108.18-42.21,31.21-2.1,56.07,7.98,85.54,15.24-6.46-15.47-19.02-20.9-34.65-23.65-43.46-7.63-81.8,3.54-120.85,21.29-21.07,9.57-48.87,26.82-71.86,29.5-4.95.58-20.82,1.03-14.51-7.95,1.9-2.71,16.05-4.02,20.86-5.32,25.9-6.99,45.85-20.07,69.87-30.4,39.76-17.11,83.02-27.11,126.06-16.16,1.62-2.04-11.99-15.14-14.14-16.91-23.91-19.59-70.71-28.96-100.81-25.59-36.26,4.07-64.4,22.43-94.93,40.32-5.14.91-7.5-4.37-5.35-8.74,1.08-2.2,35.9-22.04,40.85-24.53,37.35-18.83,73.26-23.5,114.27-13.95,13.73,3.2,28.42,8.48,40.5,15.61ZM633.02,97.94c-4.73-18.04-16.86-35.96-29.39-49.61-25.7-27.98-50.21-35.06-87.21-25.04-21.62,5.86-44.82,18.49-60.92,33.94l25.66,44.96c50.47-7.56,101.19-14.05,151.86-4.25ZM673.35,132.81c-12.54-13.47-30.04-20.9-47.94-24.52-22.37-4.53-49.62-4.93-72.53-3.85-22.09,1.04-43.83,6.36-65.89,7.68-1.17,1.06,6.6,10.37,7.81,12.34,1.82,2.99,3.21,8.28,4.81,10.45s7.12,4.95,9.75,7.69c3.95,4.13,6.3,9.72,9.89,14.11,49.36-18.27,101.35-26.29,154.11-23.91ZM720.2,161.15c2.54-2.66-8.05-9.32-9.87-10.28-21.09-11.06-79.35-7.92-103.88-4.84-28.58,3.6-56.41,12.43-83.89,20.54-3.56,8.23,7.84,4.77,12.6,4.08,59.54-8.74,102.12-34.15,166.26-16.32,2.9.81,18.09,7.54,18.78,6.82ZM516.4,186.22c-.03-6.91-2.77-9.93-8.95-12.29-30.79-11.75-67.45-19.65-100.07-13.35-37.05,7.16-60.9,30.79-95.87,41.45-5.68,1.73-45.75,10.01-45.75,14.17,14.07,8.68,36.54,8.16,52.82,7.07,31.88-2.12,63.04-19.63,93.45-28.62,33.65-9.94,69.55-13.74,104.36-8.43ZM722.39,177.5c-9.95-9.94-27.37-14.33-41.02-16.18-48.6-6.58-103.44,9.72-151.05,20.87-4.74,1.11-2.34,1-2.18,4.58.05,1.03-.79,2.36-.61,3.17.16.67,5.89,4.8,7.38,6.68,2.14,2.69,2.96,5.49,4.94,8.12,13.5-12.16,34.66-19.65,52-25.36,42.82-14.08,87.98-20.77,130.55-1.88ZM718.03,190.58c-38.96-25.48-126.04-7.64-164.04,16.32-3.9,2.46-7.74,7.9-10.39,9.26-1.34.69-3.92.36-4.22.65-.34.34-1,6.63-2.07,9.37-1.61,4.11-10.83,17.67-10.8,19.23s1.07,4.38,2.64,4.9l60.27,7.83c-4.18-24.2,6.78-53.31,28.32-65.95,40.94-24.02,92.6.48,95.94,48.51,4.47-1.3,6.73-3.97,9.8-6.54,3.44-2.88,17.46-17.68,17.45-21.27,0-4.99-18.28-19.3-22.9-22.32ZM508.79,245.08c11.67-6.09,28.54-31.69,16.39-43.1-11.57-10.87-53.17-6.29-68.71-5.93l22.2,7.75c16.53,8.32,25.76,23.67,30.12,41.28ZM400.88,210.21c-25.02,8.01-48.81,20.04-75.19,23.42,17.11,11.35,36.07,22.41,56.66,25.61-4.92-18.5,7.67-35.39,18.53-49.02ZM626.17,211.52c-6.59,1.48-9.21,10.76-1.1,12.61,14.82,3.38,15.88-15.92,1.1-12.61ZM665.46,218.03c-12.57,1.54-12.24,21.58,2.9,19.37,10.78-1.57,9.63-20.9-2.9-19.37ZM423.45,220.24c-7.22,2.12-3.38,10.93,6.23,9.54,10.46-1.51,7.01-13.43-6.23-9.54ZM459.48,231.12c-11.72,1.68-7.93,18.23,3.24,19.17,3.75.32,10.58-3.66,9.96-7.69-.75-4.88-7.43-12.3-13.2-11.48ZM128.43,238.54l-111.59-6.61c-1.61.44-6.49,26.65-6.1,29.94,1.07,9.09,18.57,11.97,25.94,13.38,26.03,4.98,52.74,4.6,79.07,6.81l12.68-43.52ZM632.73,248.05c5.21-6.39-3.35-13.7-8.93-7.3-5.89,6.76,4.53,12.69,8.93,7.3ZM430.25,250.59c-.77-.91-11.85-2.59-9.62,3.62,2,5.57,13.3.74,9.62-3.62ZM716.92,400.93c-.96-.71-17.12,10.59-19.96,12.17-63.9,35.66-178.24,22.67-248.15,9.1-51.06-9.91-128.52-41.23-177.37-24.84-49.86,16.72-40.9,67.4,10.25,72.09,32.58,2.98,69.43-3.77,103.38-2.03,42.01,2.15,82.55,15.11,123.68,22.36,47.07,8.3,96.83,11.2,144.28,3.64,14.72-2.34,49.08-13.07,45.34-33.06-.25-1.35-1.25-3.35-2.67-3.49-1.33-.13-14.57,4.86-17.99,5.65-51.21,11.88-150.75,5.54-204.2-1.8-39.63-5.44-77.98-18.62-117.09-24.59-25.27-3.86-46.09-2.49-70.31,6-4.33-.35-5.05-6.36-2.61-9.27,2.98-3.57,23.52-7.93,28.87-8.71,45.25-6.64,102.55,15.71,148.22,23.34,35.32,5.91,69.71,6.93,105.39,7.96,37.49,1.08,130.92,9.05,152.94-29.09,6.38-11.06,3.22-15.07-2-25.42Z"/>
      <path class="cls-12-mask-p" d="M464.08,95.77c-12.09-7.13-26.78-12.41-40.5-15.61-41.01-9.55-76.91-4.88-114.27,13.95-4.95,2.5-39.77,22.33-40.85,24.53-2.15,4.36.22,9.64,5.35,8.74,30.53-17.89,58.67-36.25,94.93-40.32,30.1-3.38,76.9,6,100.81,25.59,2.16,1.77,15.76,14.87,14.14,16.91-43.04-10.95-86.29-.95-126.06,16.16-24.01,10.33-43.97,23.41-69.87,30.4-4.8,1.3-18.95,2.61-20.86,5.32-6.32,8.99,9.55,8.53,14.51,7.95,22.99-2.68,50.79-19.93,71.86-29.5,39.05-17.74,77.38-28.92,120.85-21.29,15.63,2.74,28.19,8.18,34.65,23.65-29.48-7.26-54.33-17.33-85.54-15.24-47.68,3.2-68.19,28.41-108.18,42.21-15.04,5.19-33.93,6.97-47.87,13.16-16.96,7.54-17.12,21.59.76,27.96,14,4.98,29.68,1.13,39.53,4.06,1.83.54,3.75,3.74,5.85,5.05,60.15,37.67,94.94,40.91,165.16,28.2,14.29-2.59,27.56-5.47,39-14.94,3.28,34.27-36.44,50.9-64.25,56.16-34.67,6.56-96.06.31-127.57-16.36-5.63-2.98-23.09-16.71-26.78-16.92-3.18-.19-6.29,3.51-5.46,6.58,1.15,4.2,21.93,17.56,26.79,20.15,48.78,26.06,175.74,34.67,204.01-24.89,1.42-2.99,4.88-15.6,5.93-15.92l57.64,7.54c23.04-.04,45.66.92,68.49-2.32,24.53-3.49,48.4-10.94,71.54-19.46-22.37,60.33-99.72,76.46-157.2,68.38-5-.7-17.93-7.41-19.16,1.08-.97,6.68,11,8.67,16.1,9.62,20.25,3.74,49.76,2.67,70.01-.95,11.19-2,21.71-5.81,32.53-8.98,3.72,6.33,10.1,10.34,14.59,15.95,9.97,12.47,21.38,36.82,22.41,52.78.62,9.57-1.55,9.15-8.79,14.06-63.25,42.93-201.62,22.62-273.26,6.43-48.6-10.98-108.61-35.59-157.7-18.89-62.14,21.13-48.79,89.59,16.31,93.8,32.54,2.1,66.91-3.88,100.31-2.22,64.63,3.22,126.92,28.27,193.96,30.55,22.04.75,44.16-2.29,65.98-2.77-24.56,30.8-60.12,50.28-96.72,63.49-90.44,32.65-202.88,21.96-289.82-16.97-110.85-49.64-145.13-115.53-133.3-237.22,3.89-40.03,16.21-76.46,28.03-114.74C181.76,104.61,264.95-16.59,382.1,15.92c40.02,11.11,66.06,43.05,81.99,79.84ZM154.26,231.09c-3.22.97-4.69,7.71-5.67,10.72-3.47,10.7-9.24,32.35-10.22,43.17s5.29,15.56,10.48,5.04c1.15-16.27,10.71-35.69,12.17-51.07.48-5.04-.75-9.67-6.76-7.87ZM214.13,463.19c-5.39,1.81.45,11.84,2.6,14.54,5.35,6.72,38.54,30.03,46.39,31.06,4.29.56,7.72-1.06,7.02-5.9-.64-4.42-17.09-11.36-21.74-14.33s-11.33-7.57-15.26-10.9c-2.88-2.44-12.2-13.61-13.18-14.06-1.65-.75-4.15-.99-5.83-.42Z"/>
      <path class="cls-2-mask-p" d="M716.92,400.93c5.22,10.34,8.38,14.36,2,25.42-22.01,38.14-115.44,30.17-152.94,29.09s-70.06-2.05-105.39-7.96c-45.67-7.64-102.97-29.98-148.22-23.34-5.35.78-25.89,5.14-28.87,8.71-2.44,2.92-1.72,8.92,2.61,9.27,24.22-8.48,45.04-9.85,70.31-6,39.1,5.97,77.46,19.15,117.09,24.59,53.45,7.34,152.99,13.68,204.2,1.8,3.42-.79,16.66-5.79,17.99-5.65,1.42.14,2.42,2.14,2.67,3.49,3.74,19.99-30.63,30.72-45.34,33.06-47.45,7.56-97.21,4.65-144.28-3.64-41.13-7.25-81.68-20.21-123.68-22.36-33.95-1.74-70.8,5.01-103.38,2.03-51.14-4.69-60.11-55.36-10.25-72.09,48.85-16.38,126.31,14.93,177.37,24.84,69.91,13.57,184.25,26.56,248.15-9.1,2.84-1.58,19-12.88,19.96-12.17Z"/>
      <path class="cls-11-mask-p" d="M633.02,97.94c-50.67-9.8-101.39-3.3-151.86,4.25l-25.66-44.96c16.11-15.44,39.3-28.08,60.92-33.94,37-10.02,61.51-2.94,87.21,25.04,12.54,13.65,24.67,31.57,29.39,49.61Z"/>
      <path class="cls-10-mask-p" d="M516.4,186.22c-34.82-5.31-70.72-1.51-104.36,8.43-30.41,8.99-61.57,26.49-93.45,28.62-16.29,1.08-38.75,1.61-52.82-7.07,0-4.16,40.07-12.44,45.75-14.17,34.97-10.66,58.82-34.29,95.87-41.45,32.62-6.3,69.28,1.6,100.07,13.35,6.18,2.36,8.92,5.39,8.95,12.29Z"/>
      <path class="cls-10-mask-p" d="M673.35,132.81c-52.76-2.38-104.74,5.63-154.11,23.91-3.59-4.4-5.94-9.99-9.89-14.11-2.63-2.75-8.12-5.49-9.75-7.69s-2.99-7.46-4.81-10.45c-1.2-1.98-8.97-11.28-7.81-12.34,22.05-1.32,43.79-6.64,65.89-7.68,22.91-1.08,50.16-.68,72.53,3.85,17.9,3.62,35.41,11.05,47.94,24.52Z"/>
      <path class="cls-13-mask-p" d="M128.43,238.54l-12.68,43.52c-26.33-2.21-53.04-1.83-79.07-6.81-7.37-1.41-24.87-4.3-25.94-13.38-.39-3.29,4.49-29.5,6.1-29.94l111.59,6.61Z"/>
      <path class="cls-6-mask-p" d="M718.03,190.58c-2.27-.5-2.4,1.22-3.28,2.66-7.56,12.53-3.59,26.87,4.55,38.03,1.18,1.62,1.85,2.9,4.18,2.9-3.07,2.56-5.33,5.24-9.8,6.54-3.33-48.03-55-72.53-95.94-48.51-21.54,12.64-32.5,41.75-28.32,65.95l-60.27-7.83c-1.58-.53-2.62-3.32-2.64-4.9s9.19-15.11,10.8-19.23c1.08-2.74,1.73-9.04,2.07-9.37.3-.29,2.87.04,4.22-.65,2.65-1.37,6.49-6.8,10.39-9.26,38.01-23.96,125.08-41.81,164.04-16.32Z"/>
      <path class="cls-8-mask-p" d="M722.39,177.5c-42.56-18.89-87.73-12.2-130.55,1.88-17.34,5.7-38.5,13.19-52,25.36-1.98-2.63-2.79-5.43-4.94-8.12-1.49-1.87-7.22-6-7.38-6.68-.19-.81.65-2.13.61-3.17-.16-3.58-2.56-3.47,2.18-4.58,47.61-11.14,102.45-27.45,151.05-20.87,13.65,1.85,31.07,6.24,41.02,16.18Z"/>
      <path class="cls-5-mask-p" d="M508.79,245.08c-4.36-17.61-13.58-32.96-30.12-41.28l-22.2-7.75c15.53-.36,57.13-4.94,68.71,5.93,12.15,11.41-4.72,37.01-16.39,43.1Z"/>
      <path class="cls-5-mask-p" d="M400.88,210.21c-10.86,13.64-23.45,30.53-18.53,49.02-20.59-3.2-39.55-14.26-56.66-25.61,26.39-3.37,50.17-15.41,75.19-23.42Z"/>
      <path class="cls-7-mask-p" d="M720.2,161.15c-.69.72-15.88-6.01-18.78-6.82-64.14-17.83-106.72,7.58-166.26,16.32-4.76.7-16.17,4.15-12.6-4.08,27.48-8.11,55.31-16.94,83.89-20.54,24.53-3.09,82.79-6.22,103.88,4.84,1.82.96,12.41,7.62,9.87,10.28Z"/>
      <path class="cls-4-mask-p" d="M718.03,190.58c4.62,3.02,22.89,17.33,22.9,22.32,0,3.59-14.01,18.39-17.45,21.27-2.33,0-3-1.28-4.18-2.9-8.14-11.16-12.11-25.5-4.55-38.03.87-1.44,1-3.16,3.28-2.66Z"/>
      <path class="cls-3-mask-p" d="M665.46,218.03c12.52-1.53,13.68,17.8,2.9,19.37-15.14,2.21-15.47-17.84-2.9-19.37Z"/>
      <path class="cls-3-mask-p" d="M459.48,231.12c5.76-.82,12.44,6.6,13.2,11.48.62,4.03-6.21,8.01-9.96,7.69-11.17-.94-14.96-17.49-3.24-19.17Z"/>
      <path class="cls-3-mask-p" d="M626.17,211.52c14.78-3.31,13.72,15.99-1.1,12.61-8.11-1.85-5.49-11.13,1.1-12.61Z"/>
      <path class="cls-1-mask-p" d="M423.45,220.24c13.23-3.89,16.69,8.02,6.23,9.54-9.61,1.39-13.45-7.41-6.23-9.54Z"/>
      <path class="cls-1-mask-p" d="M632.73,248.05c-4.4,5.39-14.82-.53-8.93-7.3,5.58-6.4,14.14.91,8.93,7.3Z"/>
      <path class="cls-1-mask-p" d="M430.25,250.59c3.68,4.36-7.62,9.19-9.62,3.62-2.23-6.2,8.85-4.53,9.62-3.62Z"/>
      <path class="cls-9-mask-p" d="M214.13,463.19c1.69-.57,4.19-.34,5.83.42.97.45,10.3,11.62,13.18,14.06,3.93,3.33,10.82,8.06,15.26,10.9s21.1,9.9,21.74,14.33c.7,4.84-2.73,6.46-7.02,5.9-7.85-1.03-41.04-24.34-46.39-31.06-2.15-2.7-7.99-12.73-2.6-14.54Z"/>
      <path class="cls-9-mask-p" d="M154.26,231.09c6.01-1.8,7.24,2.82,6.76,7.87-1.46,15.38-11.02,34.8-12.17,51.07-5.19,10.52-11.46,5.89-10.48-5.04s6.75-32.47,10.22-43.17c.98-3.01,2.44-9.76,5.67-10.72Z"/>
    </g>
  </g>
</svg>