<?xml version="1.0" encoding="UTF-8"?>
<svg
  id="Calque_2"
  data-name="Calque 2"
  xmlns="http://www.w3.org/2000/svg"
  width="60"
  height="60"
  viewBox="0 0 300 300"
  preserveAspectRatio="xMidYMid meet"
>

  <defs>
    <style>
      .cls-1-base {
        fill: #10171d;
      }

      .cls-2-base {
        fill: #e9f9ff;
      }
    </style>
  </defs>
  <g id="Calque_1-2" data-name="Calque 1" transform="translate(0, 0) scale(0.3)">
  
    <g>
      <path fill="#e9f9ff" d="M9.43,1014.9c3.62-10.19,5.16-21.12,8.18-31.63,14.23-49.5,32.49-89.24,71.37-123.84,36.89-32.83,83-38.3,122.42-66.19,66.37-46.96,80.31-135.46,73.76-211.97-6.62-77.28-54.78-141.83-68.31-219.63-18.47-106.27,20.68-218.62,101-289.85,37.64-33.38,82.63-39.65,130.59-49.28,73.96-14.86,132.48-19.99,200.38,18.02,56.69,31.73,122.52,79.86,149.08,140.95,10.36,23.83,13.98,49.67,23.72,73.34,6.88,16.71,20.1,34.2,23.42,51.83,3.94,20.88-.7,46.48.25,68.47,2.03,46.9,21.81,93.48,7.96,139.88-8.36,28-28.34,57.53-40.8,84.61-21.74,47.25-27.71,73.7-66.78,112.06-77.98,76.56-191.69,45.77-258.92-27.84-20.33-22.26-36.42-48.37-58.81-68.77-23.42-21.34-48.61-31.49-58.56-64.65-5.02-16.73-7.44-43.44-5.74-60.78.6-6.19,9.37-28.6,3.27-31.66-3.57-1.79-6.93.15-8.44,3.57-11.01,25.02-7.37,74.26,2.45,99.51,12.02,30.88,36.65,41.83,59.39,62.73,21.92,20.15,37.73,45.77,57.72,67.68,31.72,34.77,72.39,60.22,118.6,71.11,24.21,5.7,47.43,5.51,72.11,3.64,3.39,23.85,35.29,36.88,55.89,42.78,79.74,22.88,145.19-13.94,187.39,80.8,17.44,39.15,25.4,82.83,31.42,125.1h-91.55c.41-11.02,4.16-25.74,2.15-36.52-.84-4.5-6.01-6.83-9.33-2.84-2.97,3.57-1.08,11.07-1.55,15.89-.76,7.81-2.97,15.52-2.17,23.47H212.14c.42-10.35,5.76-21,6.52-31.1,1.13-15.06-6.27-15.15-10.92-2.21-3.66,10.16-5.34,22.68-7.58,33.32H9.43ZM457.62,214.99c3.92,3.94,16.15-3.58,20.96-5.21,34.02-11.49,67.43-17.37,103.6-15.3,24.29,1.39,48.55,8.54,72.99,9.85,30.56,1.64,54.77-4.72,84.72,5.74,8.56,2.99,23.33,12.25,29.95,13.66,7.39,1.57,12.45-2.91,6.75-8.94-6.44-6.82-41.96-19.24-52.03-21.01-23.16-4.05-49.98-.07-73.75-1.45-24.74-1.43-49.21-8.62-74.08-9.85-30.49-1.51-67.1,4.39-95.99,14.19-4.99,1.69-31.48,9.93-23.12,18.32ZM409.66,258.06c-2.54,2.5-2.02,8.68,2.5,9.53,3.52.67,11.26.21,15.27.08,47.2-1.57,88.07-14.87,133.26-23.7,40.25-7.87,47.38,1.97,82.99,8.97,30.49,5.99,53.12-2.67,82.31-1.66,5.75.2,24.47,5.58,24.44-3.83-.02-6.62-11.55-6.79-16.76-7.13-32.18-2.1-60.54,7.77-92.82.19-36.03-8.46-44.73-15.44-84.53-7.44-36.8,7.4-70.09,17.6-108.24,21.47-6.6.67-35.52.68-38.43,3.53ZM735.04,276.68c-7.01.5-33.19,3.72-36.72,9.08-1.89,2.86-.61,8.05,2.84,9,1.54.43,25.79-5.97,31.39-6.38,25.36-1.88,48.76,2.5,70.61,15.47,4.85,2.88,21.29,18.66,24.29,8.53,1.61-5.43-6.31-10.04-10.12-12.91-22.89-17.26-53.87-24.83-82.3-22.79ZM567.21,277.76c-29.18,1.72-69.61,11.75-96.42,23.48-5.49,2.4-19.68,7.65-17.6,14.7,2.38,8.07,17.98-2.19,22.74-4.1,25.88-10.37,60.91-20.77,88.74-22.44,8.27-.5,25.99,1.72,32.51-.18,3.88-1.13,5.05-5.44,2.36-8.45-3.9-4.36-25.94-3.37-32.32-3ZM589.5,308.26c-.72.72-1.27,2.58-1.29,3.61-.08,4.31,13.75,32.07,17.38,33.74,3.63,1.66,7.55,1.21,7.71-3.24.14-3.82-11.69-29.15-14.41-32.59-2.19-2.76-6.76-4.15-9.39-1.52ZM717.56,362.25c1.78-1.73,9.65-26.33,9.98-29.85.8-8.65-6.75-10.79-9.78-6.21-1.33,2-8.99,26.9-9.26,29.76-.54,5.78,4.67,10.55,9.06,6.3ZM508.36,359.59c-6.75.53-35.89,4.38-37.78,11.38,3.03,11.09,2.42,22.31,11.31,30.83,17.24,16.52,69.01,16.61,91.03,11.5,32.85-7.61,35.86-34.44,4.3-46.93-19.43-7.69-48.1-8.41-68.86-6.78ZM763.38,363.95c-17.28,1.68-69.82,21.01-42.79,43.29,10.88,8.97,49.69,13.09,64.27,13.21,19.76.17,30.42-21.67,32.01-38.95.6-6.47,1.01-11.67-5.63-14.83-9.09-4.34-37.21-3.75-47.87-2.72ZM691.4,425.98c-9.11,1.69.04,20.42,2.26,25.65,7.19,16.94,17.48,33.88,31.27,46.15,4.8,4.27,12.47,6.18,13.54,13.74,1.75,12.37-11.64,37.35-23.89,41.4-10.66,3.52-25.41-3.37-31.34-.83-4.96,2.12-4.66,8.12.15,10.19,6,2.58,22.93,3.93,29.44,3.07,23.25-3.06,48.18-48.06,32.08-66.83-3.24-3.77-9.55-6.96-13.49-10.5-9.76-8.78-17.46-20.65-23.25-32.37-3.68-7.44-7-20.57-10.6-26.48-1.5-2.47-3.18-3.75-6.18-3.19ZM626.02,561.91c2.78-2.78.97-8.31-2.68-9.33-4.32-1.22-9.04.61-13.97-2.38-4.55-2.76-10.89-13.74-10.41-19.13.94-10.65,21.93-10.86,15.43-19.7-6.51-8.86-22.84,6.16-25.66,13.74-5.32,14.27,8.68,36.48,23.94,38.15,2.81.31,11.56.45,13.36-1.35ZM647.77,542.77c-6.83,1.5-6.67,9.93-1.09,11.53,4.15,1.19,17.29.32,18.68-4.93,2.32-8.75-12.22-7.79-17.58-6.61ZM746.99,644.82c2.69-2.69,1.28-6.32-1.35-8.48-7.56-6.21-42.47-10.36-53.55-11.85-37.88-5.08-80.99-13.04-117.85-2.6-4.38,1.24-26.46,7.31-18.81,15.04,4.23,4.27,19.06-3.18,24.85-4.62,13.19-3.3,26.32-5.41,40-4.66,32.15,1.75,77.79,8.21,109.35,14.91,4.5.95,13.8,5.83,17.36,2.27ZM695.77,661.71c-1.21-1.21-3.98-1.25-5.68-1.4-11.33-.95-33.52-1.08-44.73.04-12.48,1.24-12.48,10.77,0,12.01,11.71,1.16,34.02.48,45.83-1.04,4.83-.62,8.22-5.98,4.58-9.61ZM451.61,834.05c-2.82.61-4.01,1.78-4.17,4.66-.53,9.75,12.89,6.56,19.05,7.23,16.94,1.84,25.17,11.62,38.49,19.29,34.53,19.88,40.02-6.09,69.56-9.59,5.58-.66,19.34,2.79,15.61-8.02-1.46-4.23-17.89-3.21-22.04-2.78-16.29,1.71-28.5,17.84-43.62,16.15-11.42-1.28-23.71-14.18-34.08-19.36-9.68-4.83-28.23-9.88-38.79-7.59Z"/>
      <path fill="#e9f9ff" d="M523.84,370.18c-.89,8.86-2.95,20.88.87,29.12,1.04,2.24,3.67,3.17,3.48,5.78-12.79-2.13-36.32-3.17-42.39-17.01-1.51-3.45-3.48-10.96.61-13.36,3.47-2.04,36-5.95,37.43-4.53Z"/>
      <path fill="#e9f9ff" d="M585.58,395.98c-1.62,1.68-12.5,7.11-13.79,5.83.15-4.07,3.38-6.44,4.09-10.62.69-4.05.07-8.22.27-12.28,1.55-1.61,18.09,8.09,9.43,17.07Z"/>
      <path fill="#e9f9ff" d="M778.86,374.55c-3.96,4.55-6.92,7.16-7.63,13.62-.89,8.08.88,13.18,4.36,20.18-9.35-1.89-47.07-2.23-49.97-12.78-1.44-5.25,10.86-11.91,15.12-13.93,11.67-5.52,25.34-7.43,38.13-7.1Z"/>
    </g>
    <g>
      <path class="cls-1-base" d="M2.89,1014.9c-4.36-4.5-2.72-7.82-1.86-13.32,8.55-54.22,39.59-114.41,80.31-150.88,37.95-33.98,82.57-38.39,122.42-66.19,61.29-42.75,73.85-120.94,70.54-191.3-3.43-72.81-42.08-126.47-60.77-194.45-33.56-122.1,1.96-251.61,96.67-335.71,29.07-25.81,51.27-32.43,88.28-41.45,73.97-18.04,160.18-36.17,232.54-3.65,57.09,25.66,138.28,85.75,168.72,140.93,18.26,33.09,21.65,68.2,37.02,101.49,4.7,10.17,11.58,19.68,15.63,30.17,10.2,26.47,3.35,63.35,4.94,92.15,2.27,41.24,18.89,81.24,10.38,122.78-6.99,34.08-30.54,68.22-45.11,99.93-15.78,34.34-22.1,60.06-47.05,90.36-24.76,30.08-56.5,59.1-95.84,67.16,1.98,17.08,26.2,27.8,40.79,32.73,73.3,24.74,147.45-10.43,193.67,72.32,24.04,43.05,34.67,98.33,40.14,146.91h-10.9c-6.02-42.27-13.98-85.95-31.42-125.1-42.2-94.73-107.65-57.92-187.39-80.8-20.6-5.91-52.5-18.94-55.89-42.78-24.68,1.86-47.9,2.06-72.11-3.64-46.21-10.89-86.88-36.34-118.6-71.11-19.98-21.91-35.79-47.53-57.72-67.68-22.74-20.9-47.38-31.85-59.39-62.73-9.83-25.25-13.46-74.5-2.45-99.51,1.5-3.42,4.86-5.36,8.44-3.57,6.1,3.05-2.67,25.47-3.27,31.66-1.69,17.34.73,44.04,5.74,60.78,9.95,33.17,35.14,43.32,58.56,64.65,22.39,20.4,38.48,46.51,58.81,68.77,67.22,73.61,180.93,104.4,258.92,27.84,39.07-38.36,45.04-64.82,66.78-112.06,12.46-27.08,32.44-56.61,40.8-84.61,13.85-46.39-5.93-92.97-7.96-139.88-.95-21.99,3.69-47.59-.25-68.47-3.33-17.63-16.55-35.12-23.42-51.83-9.74-23.67-13.36-49.51-23.72-73.34-26.57-61.09-92.4-109.22-149.08-140.95-67.9-38.01-126.42-32.88-200.38-18.02-47.95,9.63-92.95,15.9-130.59,49.28-80.32,71.23-119.47,183.59-101,289.85,13.52,77.8,61.69,142.34,68.31,219.63,6.55,76.51-7.38,165.01-73.76,211.97-39.42,27.89-85.53,33.36-122.42,66.19-38.87,34.6-57.13,74.34-71.37,123.84-3.02,10.51-4.56,21.44-8.18,31.63H2.89Z"/>
      <path class="cls-1-base" d="M212.14,1014.9h-11.99c2.24-10.64,3.93-23.15,7.58-33.32,4.65-12.93,12.06-12.85,10.92,2.21-.76,10.1-6.1,20.75-6.52,31.1Z"/>
      <path class="cls-1-base" d="M851.88,1014.9h-10.9c-.8-7.94,1.41-15.66,2.17-23.47.47-4.82-1.42-12.32,1.55-15.89,3.32-3.98,8.49-1.66,9.33,2.84,2.01,10.78-1.74,25.5-2.15,36.52Z"/>
      <path class="cls-1-base" d="M508.36,359.59c20.76-1.62,49.43-.9,68.86,6.78,31.56,12.49,28.55,39.31-4.3,46.93-22.02,5.1-73.79,5.02-91.03-11.5-8.89-8.52-8.28-19.74-11.31-30.83,1.89-7,31.03-10.85,37.78-11.38ZM523.84,370.18c-1.42-1.43-33.96,2.49-37.43,4.53-4.09,2.4-2.13,9.91-.61,13.36,6.08,13.84,29.6,14.88,42.39,17.01.18-2.61-2.45-3.54-3.48-5.78-3.81-8.25-1.76-20.27-.87-29.12ZM585.58,395.98c8.66-8.99-7.88-18.68-9.43-17.07-.2,4.06.42,8.23-.27,12.28-.71,4.18-3.94,6.55-4.09,10.62,1.28,1.28,12.17-4.15,13.79-5.83Z"/>
      <path class="cls-1-base" d="M409.66,258.06c2.91-2.86,31.82-2.87,38.43-3.53,38.15-3.87,71.44-14.07,108.24-21.47,39.8-8,48.5-1.02,84.53,7.44,32.28,7.58,60.64-2.28,92.82-.19,5.21.34,16.74.52,16.76,7.13.02,9.41-18.7,4.03-24.44,3.83-29.19-1.01-51.82,7.65-82.31,1.66-35.62-6.99-42.74-16.84-82.99-8.97-45.18,8.83-86.06,22.13-133.26,23.7-4.01.13-11.76.59-15.27-.08-4.52-.85-5.04-7.03-2.5-9.53Z"/>
      <path class="cls-1-base" d="M457.62,214.99c-8.35-8.39,18.13-16.62,23.12-18.32,28.89-9.8,65.5-15.69,95.99-14.19,24.87,1.23,49.34,8.42,74.08,9.85,23.77,1.38,50.59-2.6,73.75,1.45,10.07,1.76,45.59,14.19,52.03,21.01,5.7,6.03.63,10.52-6.75,8.94-6.62-1.41-21.39-10.67-29.95-13.66-29.95-10.46-54.17-4.1-84.72-5.74-24.43-1.31-48.69-8.47-72.99-9.85-36.17-2.07-69.58,3.81-103.6,15.3-4.82,1.63-17.04,9.15-20.96,5.21Z"/>
      <path class="cls-1-base" d="M763.38,363.95c10.65-1.03,38.77-1.62,47.87,2.72,6.64,3.16,6.22,8.36,5.63,14.83-1.59,17.28-12.26,39.12-32.01,38.95-14.58-.12-53.4-4.25-64.27-13.21-27.02-22.28,25.52-41.61,42.79-43.29ZM778.86,374.55c-12.79-.33-26.46,1.57-38.13,7.1-4.25,2.01-16.56,8.67-15.12,13.93,2.9,10.55,40.62,10.88,49.97,12.78-3.48-7-5.24-12.1-4.36-20.18.71-6.46,3.67-9.07,7.63-13.62Z"/>
      <path class="cls-1-base" d="M691.4,425.98c2.99-.56,4.68.72,6.18,3.19,3.59,5.91,6.92,19.04,10.6,26.48,5.79,11.71,13.49,23.59,23.25,32.37,3.94,3.54,10.25,6.73,13.49,10.5,16.1,18.78-8.82,63.77-32.08,66.83-6.51.86-23.44-.5-29.44-3.07-4.81-2.07-5.11-8.07-.15-10.19,5.93-2.53,20.68,4.35,31.34.83,12.25-4.05,25.64-29.03,23.89-41.4-1.07-7.56-8.74-9.47-13.54-13.74-13.79-12.27-24.09-29.21-31.27-46.15-2.22-5.24-11.37-23.96-2.26-25.65Z"/>
      <path class="cls-1-base" d="M746.99,644.82c-3.57,3.56-12.86-1.32-17.36-2.27-31.55-6.7-77.2-13.16-109.35-14.91-13.68-.74-26.81,1.36-40,4.66-5.79,1.45-20.62,8.9-24.85,4.62-7.66-7.73,14.43-13.8,18.81-15.04,36.86-10.44,79.97-2.48,117.85,2.6,11.09,1.49,45.99,5.64,53.55,11.85,2.64,2.17,4.04,5.79,1.35,8.48Z"/>
      <path class="cls-1-base" d="M451.61,834.05c10.56-2.29,29.11,2.76,38.79,7.59,10.38,5.18,22.67,18.08,34.08,19.36,15.12,1.69,27.33-14.44,43.62-16.15,4.15-.43,20.58-1.45,22.04,2.78,3.73,10.81-10.04,7.36-15.61,8.02-29.53,3.5-35.03,29.46-69.56,9.59-13.32-7.67-21.55-17.45-38.49-19.29-6.16-.67-19.58,2.52-19.05-7.23.16-2.88,1.35-4.05,4.17-4.66Z"/>
      <path class="cls-1-base" d="M567.21,277.76c6.39-.38,28.43-1.36,32.32,3,2.7,3.01,1.53,7.32-2.36,8.45-6.53,1.9-24.25-.31-32.51.18-27.84,1.68-62.86,12.07-88.74,22.44-4.76,1.91-20.36,12.16-22.74,4.1-2.08-7.05,12.11-12.29,17.6-14.7,26.82-11.73,67.25-21.76,96.42-23.48Z"/>
      <path class="cls-1-base" d="M735.04,276.68c28.44-2.05,59.41,5.53,82.3,22.79,3.8,2.87,11.73,7.48,10.12,12.91-3.01,10.13-19.44-5.65-24.29-8.53-21.86-12.97-45.25-17.35-70.61-15.47-5.6.42-29.85,6.81-31.39,6.38-3.45-.95-4.73-6.14-2.84-9,3.53-5.35,29.71-8.57,36.72-9.08Z"/>
      <path class="cls-1-base" d="M626.02,561.91c-1.8,1.8-10.56,1.66-13.36,1.35-15.26-1.67-29.26-23.88-23.94-38.15,2.83-7.58,19.15-22.6,25.66-13.74,6.5,8.85-14.49,9.06-15.43,19.7-.48,5.39,5.86,16.37,10.41,19.13,4.93,2.99,9.65,1.16,13.97,2.38,3.65,1.03,5.46,6.56,2.68,9.33Z"/>
      <path class="cls-1-base" d="M695.77,661.71c3.64,3.63.25,8.99-4.58,9.61-11.81,1.52-34.13,2.2-45.83,1.04-12.48-1.24-12.48-10.78,0-12.01,11.21-1.11,33.4-.99,44.73-.04,1.7.14,4.47.18,5.68,1.4Z"/>
      <path class="cls-1-base" d="M589.5,308.26c2.63-2.63,7.2-1.24,9.39,1.52,2.72,3.43,14.55,28.77,14.41,32.59-.16,4.45-4.08,4.91-7.71,3.24-3.64-1.67-17.46-29.43-17.38-33.74.02-1.03.57-2.89,1.29-3.61Z"/>
      <path class="cls-1-base" d="M717.56,362.25c-4.39,4.24-9.6-.52-9.06-6.3.27-2.85,7.93-27.76,9.26-29.76,3.04-4.57,10.58-2.44,9.78,6.21-.33,3.52-8.2,28.12-9.98,29.85Z"/>
      <path class="cls-1-base" d="M647.77,542.77c5.36-1.18,19.91-2.14,17.58,6.61-1.39,5.25-14.53,6.12-18.68,4.93-5.57-1.61-5.73-10.03,1.09-11.53Z"/>
    </g>
  </g>
</svg>