<?xml version="1.0" encoding="UTF-8"?>
<svg id="Calque_2" data-name="Calque 2" xmlns="http://www.w3.org/2000/svg" viewBox="0 0 816.05 384.22">
  <defs>
    <style>
      .cls-1-cap-c {
        fill: #fffaf0;
      }

      .cls-2-cap-c {
        fill: #090606;
      }

      .cls-4-cap-c {
        fill: #fefefe;
      }
    </style>
  </defs>
  <g id="Calque_1-2" data-name="Calque 1" transform="translate(-10, 65) scale(0.7)">
    <g>
      <g>
        <path fill="$fillColor" d="M641.12,307.27c38.98.73,76.61,12.71,111.9,28.17,7.94,1.26,31.69,19.65,36.83,19.89,7.52.36,7.04-6.51,2.2-10.97-19.37-17.8-86.02-39.69-112.59-44.39-82.52-14.59-128.62,11.68-199.99,42.4-58.54,25.2-89.13,31.3-153.72,23.67-48.7-5.76-99.24-17.21-142.34-40.77l79.79-24.84c98.44-32.78,197.69-32.01,299.99-29.15,44.96,1.25,76.63.29,119.62,15.54,23.02,8.16,51.39,18.93,73.48,28.99,18.79,8.56,80.41,46.96,27.85,55.53-18.6,3.03-49.35,2.28-68.35.28-18.1-1.91-35.37-9.29-52.87-10.9-1.74-6.95-3.34-14.04-6-20.72-4.39-11.05-12.41-21.46-15.8-32.73Z"/>
        <path class="cls-1-cap-c" d="M642.21,263.63l-35.37-3.31c-66.19,1.76-132.29-6.06-198.39.05-78.91,7.3-153.26,30.06-228.32,53.45-12.02-66.24-5.71-130.95,20.5-192.74,21.01-49.53,47.29-67.55,97.71-83.28,59.9-18.69,122.78-8.57,181.44,10.43,48.35,15.66,84.3,31.14,116.63,71.99,33.46,42.29,36.43,92.28,45.8,143.42Z"/>
        <path fill="$fillColor" d="M241.15,49.83c-15.72,12.29-28.23,24.38-38.33,41.8-30.67,52.9-43.44,122.75-39.04,183.45,1.02,14.05,4.04,28.03,4.99,42.08-30.95,9.56-62.14,19.17-94.16,24.68-8.9,1.53-57.65,8.62-62.39,5.32-1.59-1.1-1.18-7.72-1.06-9.94,4.49-84.09,30.21-191.96,104.33-241.38,36.69-24.47,82.95-36.75,125.67-46.01ZM195.06,68.55c-4.76,1.4-4.11,11.04,1.78,10.48,7.33-.69,6.8-13.01-1.78-10.48ZM169.88,77.19c-4.19,1.34-.97,9.29,3.76,5.97,2.68-1.88.95-7.47-3.76-5.97ZM180.83,91.51c-9.35.88-3.65,15.3,3.73,9.12,4.27-3.57.31-9.5-3.73-9.12ZM156.95,97.98c-7.62,1.48-5.32,11.83,1.85,10.78s5.63-12.23-1.85-10.78ZM137.33,106.69c-6.87.93-4.96,11.78,2.77,9.48,5.62-1.67,2.28-10.17-2.77-9.48ZM113.9,116.63c-5.31,5.3,4.69,13.81,9.44,6.68,3.67-5.51-5.11-10.99-9.44-6.68ZM167.73,118.68c-3.75,1.27-1.71,9.63,2.91,8.48,4.48-1.12,4.57-11.01-2.91-8.48ZM94.79,126.37c-5.17,1.55-3.52,11.2,2.8,9.46,6.13-1.69,4.67-11.7-2.8-9.46ZM142.7,128.54c-5.32,1.85-2.1,11.14,3.94,9.48,6.57-1.81,4.31-12.36-3.94-9.48ZM127.54,143.36c4.78-4.86-1.9-12.68-6.92-8.56-5.59,4.58,2.04,13.52,6.92,8.56ZM156.41,141.72c-5.04,5.05,3.3,12.16,7.46,6.93,4.2-5.29-3.09-11.3-7.46-6.93ZM100.83,151c5.55,5.53,14.39-5.41,6.23-9.02-6.39-2.83-9.87,5.39-6.23,9.02ZM87.21,149.36c-4.13-4.18-11.44,1.99-7.47,6.92,4.21,5.22,12.48-1.84,7.47-6.92ZM135.11,152.57c-6,1.81-2.3,11.85,3.62,10.26,7.23-1.95,5.42-12.98-3.62-10.26ZM121,169.55c7.47-7.35-12.77-15.3-10.62-2.51.8,4.74,8.05,5.05,10.62,2.51ZM92.65,166.71c-7.52,1.37-6.76,13.7,3.88,10.51,5.07-1.52,4.35-12.01-3.88-10.51ZM152.61,181.55c7.36-7.48-9-15.36-9.25-4.44-.1,4.52,6.19,7.55,9.25,4.44ZM67.54,177.63c-8.1,2.46-1.65,17.32,5.8,9.11,4.3-4.74-.27-10.79-5.8-9.11ZM130.91,180.88c-4.5-2.78-8.83,3.48-4.18,5.89,4.42,2.29,6.63-4.37,4.18-5.89ZM107.92,186.45c-2.58-2.59-7.74-1.66-8.44,2.51-1.99,11.78,15.52,4.59,8.44-2.51ZM79.43,197.19c-4.19,1.34-.97,9.29,3.76,5.97,2.68-1.88.95-7.47-3.76-5.97ZM147,198.28c-4.19,1.34-.97,9.29,3.76,5.97,2.68-1.88.95-7.47-3.76-5.97ZM55.05,212.1c5.79,5.76,13.77-4.01,8.01-8.57-6.25-4.94-12.47,4.13-8.01,8.57ZM126.45,206.08c-7.06-7.13-15.26,9.05-4.64,9.66,6.16.35,7.99-6.28,4.64-9.66ZM97.55,213.72c-3.47,3.49-1.12,11.28,5.49,9.35,9.16-2.67.51-15.39-5.49-9.35ZM74.01,220.14c-3.2,1.08-2.71,9.04,2.1,9.7,9.01,1.25,7.59-12.97-2.1-9.7ZM145.91,225.55c-4.19,1.34-.97,9.29,3.76,5.97,2.68-1.88.95-7.47-3.76-5.97ZM48.97,226.72c-3.8,1.32-3.51,7.3.39,9.1,8.32,3.83,10.57-12.92-.39-9.1ZM123.17,232.27c-4.65-4.6-12.95,2.86-7.92,7.38,5.32,4.78,12.31-3.03,7.92-7.38ZM94.84,238.71c-6.7,1.25-5.38,11.83,1.84,10.77s5.7-12.18-1.84-10.77ZM66.45,247.4c-6.1,1.6-4.02,10.8,2.9,8.47,3.76-1.27,1.67-9.67-2.9-8.47ZM41.39,251.82c-4.37,1.29-4.13,8.96.93,9.66,8.63,1.2,7.73-12.22-.93-9.66ZM140.56,251.85c-4.47,1.35-3.95,8.04.66,9.9,8.22,3.32,10.6-13.3-.66-9.9ZM112.21,257.3c-5.9,1.83-4.26,11.16,2.99,10.68,9.03-.6,8.15-14.14-2.99-10.68ZM87.12,265.99c-5.62,1.98-1.19,12.62,5.82,9.11,4.94-2.47,1.83-11.81-5.82-9.11ZM59.41,279.73c6.14,6.13,14.18-7.07,5.48-9.39-6.12-1.63-8.88,5.99-5.48,9.39ZM131.34,282.45c-5.04,5.05,3.3,12.16,7.46,6.93,4.2-5.29-3.09-11.3-7.46-6.93ZM37.03,282.37c-4.37,1.29-4.13,8.96.93,9.66,8.63,1.2,7.73-12.22-.93-9.66ZM108.96,287.82c-4.37,1.29-4.13,8.96.93,9.66,8.63,1.2,7.73-12.22-.93-9.66ZM86.1,293.23c-7.23,1.04-6.13,11.9,1.85,10.8,6.76-.93,3.91-11.63-1.85-10.8ZM56.65,302c-4.37,1.29-4.13,8.96.93,9.66,8.63,1.2,7.73-12.22-.93-9.66ZM37.08,308.63c-5.17-5.23-13.44,5.36-7.37,9.01,6.42,3.86,11.47-4.87,7.37-9.01Z"/>
      </g>
      <path class="cls-4-cap-c" d="M242.78,48.73c.71.36.71.73,0,1.09v-1.09Z"/>
      <g>
        <path class="cls-2-cap-c" d="M641.12,307.27c-108.08-2.03-172.22,77.95-281.77,73.14-63.27-2.78-136.55-18.31-190.71-51.34-43.88,12.63-90.2,27.07-136.16,29.52-6.34.34-21.74.96-27.29-.05-3.8-.69-4.59-8.12-4.89-11.47-1.1-12.34.94-30.82,2.29-43.49,6.73-63.09,29.47-139.37,72.33-187.24,54.5-60.87,141.16-69.97,215.32-91.01,12.23-27.96,50.7-35.25,68.23-9.29,56.92.7,112.9,14.72,165.2,36.23,62.23,25.59,102.2,73.31,117.09,139.16,2.37,10.48,11.23,71.96,14.78,75.2,11.11,2.92,21.91,6.41,32.69,10.37,33.01,12.13,95.97,33.28,117.99,59.71,10.83,13,15.55,28.76-1.08,39.31-20.36,12.91-87.66,7.93-111.94,2.91-12.1-2.5-23.87-6.69-36.19-8.5-7.5-7.19-2.82-10.5,5.88-9.7,17.5,1.61,34.77,8.99,52.87,10.9,19,2,49.76,2.75,68.35-.28,52.56-8.57-9.06-46.97-27.85-55.53-22.09-10.06-50.47-20.83-73.48-28.99-42.99-15.25-74.66-14.28-119.62-15.54-102.3-2.85-201.55-3.62-299.99,29.15l-79.79,24.84c43.1,23.56,93.64,35.01,142.34,40.77,64.59,7.64,95.19,1.53,153.72-23.67,71.37-30.72,117.47-56.99,199.99-42.4,26.57,4.7,93.23,26.59,112.59,44.39,4.84,4.45,5.32,11.33-2.2,10.97-5.15-.25-28.89-18.63-36.83-19.89-35.29-15.46-72.92-27.44-111.9-28.17ZM642.21,263.63c-9.37-51.14-12.34-101.13-45.8-143.42-32.33-40.85-68.28-56.33-116.63-71.99-58.66-19-121.54-29.12-181.44-10.43-50.43,15.74-76.7,33.75-97.71,83.28-26.21,61.79-32.52,126.5-20.5,192.74,75.06-23.39,149.41-46.15,228.32-53.45,66.1-6.11,132.2,1.71,198.39-.05l35.37,3.31ZM242.78,48.73v1.09c.71-.36.71-.73,0-1.09ZM241.15,49.83c-42.72,9.26-88.98,21.55-125.67,46.01C41.36,145.26,15.64,253.13,11.15,337.22c-.12,2.22-.53,8.83,1.06,9.94,4.74,3.3,53.49-3.79,62.39-5.32,32.02-5.51,63.22-15.12,94.16-24.68-.94-14.05-3.97-28.02-4.99-42.08-4.4-60.7,8.36-130.55,39.04-183.45,10.1-17.42,22.61-29.51,38.33-41.8Z"/>
        <path class="cls-2-cap-c" d="M112.21,257.3c11.14-3.46,12.02,10.08,2.99,10.68-7.25.48-8.89-8.85-2.99-10.68Z"/>
        <path class="cls-2-cap-c" d="M92.65,166.71c8.23-1.5,8.94,9,3.88,10.51-10.64,3.19-11.4-9.15-3.88-10.51Z"/>
        <path class="cls-2-cap-c" d="M121,169.55c-2.57,2.53-9.82,2.23-10.62-2.51-2.15-12.78,18.09-4.84,10.62,2.51Z"/>
        <path class="cls-2-cap-c" d="M67.54,177.63c5.53-1.68,10.1,4.37,5.8,9.11-7.44,8.21-13.9-6.65-5.8-9.11Z"/>
        <path class="cls-2-cap-c" d="M55.05,212.1c-4.46-4.43,1.76-13.51,8.01-8.57,5.76,4.56-2.22,14.33-8.01,8.57Z"/>
        <path class="cls-2-cap-c" d="M126.45,206.08c3.35,3.38,1.52,10.01-4.64,9.66-10.62-.61-2.43-16.78,4.64-9.66Z"/>
        <path class="cls-2-cap-c" d="M156.95,97.98c7.48-1.45,9.36,9.67,1.85,10.78s-9.47-9.3-1.85-10.78Z"/>
        <path class="cls-2-cap-c" d="M113.9,116.63c4.33-4.31,13.1,1.17,9.44,6.68-4.75,7.13-14.75-1.38-9.44-6.68Z"/>
        <path class="cls-2-cap-c" d="M94.84,238.71c7.54-1.4,9.3,9.68,1.84,10.77s-8.54-9.52-1.84-10.77Z"/>
        <path class="cls-2-cap-c" d="M97.55,213.72c6-6.03,14.65,6.68,5.49,9.35-6.61,1.93-8.96-5.87-5.49-9.35Z"/>
        <path class="cls-2-cap-c" d="M135.11,152.57c9.04-2.72,10.85,8.31,3.62,10.26-5.91,1.59-9.62-8.45-3.62-10.26Z"/>
        <path class="cls-2-cap-c" d="M37.08,308.63c4.1,4.14-.94,12.87-7.37,9.01-6.07-3.65,2.2-14.23,7.37-9.01Z"/>
        <path class="cls-2-cap-c" d="M152.61,181.55c-3.05,3.11-9.35.08-9.25-4.44.25-10.92,16.61-3.04,9.25,4.44Z"/>
        <path class="cls-2-cap-c" d="M140.56,251.85c11.26-3.4,8.88,13.22.66,9.9-4.61-1.86-5.12-8.55-.66-9.9Z"/>
        <path class="cls-2-cap-c" d="M100.83,151c-3.64-3.63-.15-11.85,6.23-9.02,8.16,3.61-.69,14.55-6.23,9.02Z"/>
        <path class="cls-2-cap-c" d="M86.1,293.23c5.76-.83,8.61,9.87,1.85,10.8-7.98,1.1-9.09-9.76-1.85-10.8Z"/>
        <path class="cls-2-cap-c" d="M59.41,279.73c-3.41-3.4-.64-11.02,5.48-9.39,8.7,2.32.66,15.51-5.48,9.39Z"/>
        <path class="cls-2-cap-c" d="M127.54,143.36c-4.88,4.96-12.51-3.98-6.92-8.56,5.02-4.12,11.7,3.7,6.92,8.56Z"/>
        <path class="cls-2-cap-c" d="M195.06,68.55c8.58-2.53,9.11,9.8,1.78,10.48-5.89.55-6.55-9.08-1.78-10.48Z"/>
        <path class="cls-2-cap-c" d="M87.12,265.99c7.65-2.7,10.75,6.64,5.82,9.11-7,3.5-11.43-7.13-5.82-9.11Z"/>
        <path class="cls-2-cap-c" d="M180.83,91.51c4.04-.38,8,5.54,3.73,9.12-7.38,6.18-13.08-8.24-3.73-9.12Z"/>
        <path class="cls-2-cap-c" d="M74.01,220.14c9.68-3.26,11.1,10.95,2.1,9.7-4.8-.67-5.3-8.62-2.1-9.7Z"/>
        <path class="cls-2-cap-c" d="M123.17,232.27c4.4,4.35-2.6,12.16-7.92,7.38-5.03-4.52,3.27-11.99,7.92-7.38Z"/>
        <path class="cls-2-cap-c" d="M142.7,128.54c8.25-2.88,10.51,7.68,3.94,9.48-6.03,1.66-9.25-7.63-3.94-9.48Z"/>
        <path class="cls-2-cap-c" d="M41.39,251.82c8.66-2.56,9.56,10.86.93,9.66-5.06-.7-5.29-8.37-.93-9.66Z"/>
        <path class="cls-2-cap-c" d="M48.97,226.72c10.96-3.82,8.71,12.93.39,9.1-3.91-1.8-4.19-7.78-.39-9.1Z"/>
        <path class="cls-2-cap-c" d="M37.03,282.37c8.66-2.56,9.56,10.86.93,9.66-5.06-.7-5.29-8.37-.93-9.66Z"/>
        <path class="cls-2-cap-c" d="M108.96,287.82c8.66-2.56,9.56,10.86.93,9.66-5.06-.7-5.29-8.37-.93-9.66Z"/>
        <path class="cls-2-cap-c" d="M107.92,186.45c7.08,7.09-10.43,14.29-8.44,2.51.7-4.17,5.86-5.09,8.44-2.51Z"/>
        <path class="cls-2-cap-c" d="M56.65,302c8.66-2.56,9.56,10.86.93,9.66-5.06-.7-5.29-8.37-.93-9.66Z"/>
        <path class="cls-2-cap-c" d="M131.34,282.45c4.37-4.38,11.66,1.64,7.46,6.93-4.16,5.23-12.5-1.88-7.46-6.93Z"/>
        <path class="cls-2-cap-c" d="M156.41,141.72c4.37-4.38,11.66,1.64,7.46,6.93-4.16,5.23-12.5-1.88-7.46-6.93Z"/>
        <path class="cls-2-cap-c" d="M87.21,149.36c5.02,5.07-3.26,12.14-7.47,6.92-3.97-4.92,3.34-11.09,7.47-6.92Z"/>
        <path class="cls-2-cap-c" d="M94.79,126.37c7.47-2.24,8.93,7.78,2.8,9.46-6.32,1.74-7.97-7.92-2.8-9.46Z"/>
        <path class="cls-2-cap-c" d="M137.33,106.69c5.05-.69,8.39,7.81,2.77,9.48-7.73,2.3-9.64-8.55-2.77-9.48Z"/>
        <path class="cls-2-cap-c" d="M66.45,247.4c4.57-1.2,6.66,7.21,2.9,8.47-6.92,2.33-9-6.87-2.9-8.47Z"/>
        <path class="cls-2-cap-c" d="M167.73,118.68c7.48-2.53,7.39,7.36,2.91,8.48-4.62,1.15-6.66-7.21-2.91-8.48Z"/>
        <path class="cls-2-cap-c" d="M169.88,77.19c4.71-1.51,6.44,4.09,3.76,5.97-4.73,3.32-7.95-4.62-3.76-5.97Z"/>
        <path class="cls-2-cap-c" d="M145.91,225.55c4.71-1.51,6.44,4.09,3.76,5.97-4.73,3.32-7.95-4.62-3.76-5.97Z"/>
        <path class="cls-2-cap-c" d="M79.43,197.19c4.71-1.51,6.44,4.09,3.76,5.97-4.73,3.32-7.95-4.62-3.76-5.97Z"/>
        <path class="cls-2-cap-c" d="M130.91,180.88c2.45,1.51.24,8.18-4.18,5.89-4.64-2.41-.31-8.67,4.18-5.89Z"/>
        <path class="cls-2-cap-c" d="M147,198.28c4.71-1.51,6.44,4.09,3.76,5.97-4.73,3.32-7.95-4.62-3.76-5.97Z"/>
      </g>
    </g>
  </g>
</svg>