<svg xmlns="http://www.w3.org/2000/svg" xmlns:v="https://svgstorm.com"
viewBox = "0 0 222 200"
width="222"
height="200">
<g fill="None" fill-opacity="0.0" stroke="#000000" stroke-opacity="0.00" stroke-width="0.3"><path d="
M 0.00 200.00 
L 87.00 200.00
C 87.32 184.78 88.78 170.87 90.00 156.00
C 63.40 153.91 30.30 163.95 11.75 141.25 C -6.80 118.55 4.33 85.02 1.00 58.00 C -2.33 30.98 10.95 6.08 37.00 0.00
L 0.00 0.00
L 0.00 200.00 Z"/>
</g>
<g fill="None" fill-opacity="0.0" stroke="#040307" stroke-opacity="0.97" stroke-width="0.3"><path d="
M 87.00 200.00 
L 88.00 200.00
C 100.34 184.84 112.61 180.75 126.08 165.08 C 139.56 149.41 170.39 159.81 188.67 154.67 C 206.96 149.54 220.23 134.03 220.98 113.98 C 221.72 93.92 221.14 61.40 221.00 41.00 C 220.86 20.60 204.00 7.51 188.00 0.00
L 37.00 0.00
C 10.95 6.08 -2.33 30.98 1.00 58.00 C 4.33 85.02 -6.80 118.55 11.75 141.25 C 30.30 163.95 63.40 153.91 90.00 156.00
C 88.78 170.87 87.32 184.78 87.00 200.00
M 172.00 146.00 
C 166.33 146.00 160.67 146.00 155.00 146.00
C 143.18 146.00 129.05 144.60 121.75 154.75 C 114.45 164.90 106.76 165.37 100.00 175.00
C 98.40 174.47 99.28 172.25 99.00 171.00
C 98.80 168.71 99.83 166.53 100.00 165.00
C 100.18 158.49 99.90 152.25 101.00 146.00
C 79.29 142.08 51.60 152.25 31.32 143.68 C 11.04 135.11 9.44 112.33 11.00 92.00 C 12.56 71.67 5.96 45.06 16.92 25.92 C 27.89 6.79 55.39 10.71 75.00 11.00
C 77.75 10.73 81.58 10.00 85.00 10.00
C 107.81 10.00 137.92 11.06 160.00 10.00 C 182.08 8.94 204.06 12.28 209.32 35.68 C 214.58 59.08 209.18 85.35 211.00 109.00 C 212.82 132.65 192.89 146.00 172.00 146.00 Z"/>
</g>
<g fill="None" fill-opacity="0.0" stroke="#000000" stroke-opacity="0.00" stroke-width="0.3"><path d="
M 88.00 200.00 
L 222.00 200.00
L 222.00 0.00
L 188.00 0.00
C 204.00 7.51 220.86 20.60 221.00 41.00 C 221.14 61.40 221.72 93.92 220.98 113.98 C 220.23 134.03 206.96 149.54 188.67 154.67 C 170.39 159.81 139.56 149.41 126.08 165.08 C 112.61 180.75 100.34 184.84 88.00 200.00 Z"/>
</g>
<g fill="None" fill-opacity="0.0" stroke="#808081" stroke-opacity="1.00" stroke-width="0.3"><path d="
M 75.00 11.00 
C 78.42 11.00 82.31 10.26 85.00 10.00
C 81.58 10.00 77.75 10.73 75.00 11.00 Z"/>
</g>
<g fill="None" fill-opacity="0.0" stroke="#FDFDFD" stroke-opacity="1.00" stroke-width="0.3"><path d="
M 75.00 11.00 
C 55.39 10.71 27.89 6.79 16.92 25.92 C 5.96 45.06 12.56 71.67 11.00 92.00 C 9.44 112.33 11.04 135.11 31.32 143.68 C 51.60 152.25 79.29 142.08 101.00 146.00
C 99.90 152.25 100.18 158.49 100.00 165.00
C 99.95 166.85 99.02 169.92 99.00 171.00
C 99.28 172.25 98.40 174.47 100.00 175.00
C 106.76 165.37 114.45 164.90 121.75 154.75 C 129.05 144.60 143.18 146.00 155.00 146.00
C 160.35 145.48 166.72 145.49 172.00 146.00
C 192.89 146.00 212.82 132.65 211.00 109.00 C 209.18 85.35 214.58 59.08 209.32 35.68 C 204.06 12.28 182.08 8.94 160.00 10.00 C 137.92 11.06 107.81 10.00 85.00 10.00
C 82.31 10.26 78.42 11.00 75.00 11.00
M 79.00 68.00 
C 91.03 70.01 87.59 90.48 75.00 88.00 C 62.41 85.52 66.55 65.92 79.00 68.00
M 113.00 68.00 
C 125.03 70.01 121.59 90.48 109.00 88.00 C 96.41 85.52 100.55 65.92 113.00 68.00
M 147.00 68.00 
C 159.20 70.04 155.54 91.02 143.00 88.00 C 130.46 84.98 134.88 65.97 147.00 68.00 Z"/>
</g>
<g fill="None" fill-opacity="0.0" stroke="#07060C" stroke-opacity="1.00" stroke-width="0.3"><path d="
M 79.00 68.00 
C 66.55 65.92 62.41 85.52 75.00 88.00 C 87.59 90.48 91.03 70.01 79.00 68.00 Z"/>
</g>
<g fill="None" fill-opacity="0.0" stroke="#08070C" stroke-opacity="1.00" stroke-width="0.3"><path d="
M 113.00 68.00 
C 100.55 65.92 96.41 85.52 109.00 88.00 C 121.59 90.48 125.03 70.01 113.00 68.00 Z"/>
</g>
<g fill="None" fill-opacity="0.0" stroke="#08060C" stroke-opacity="1.00" stroke-width="0.3"><path d="
M 147.00 68.00 
C 134.88 65.97 130.46 84.98 143.00 88.00 C 155.54 91.02 159.20 70.04 147.00 68.00 Z"/>
</g>
<g fill="None" fill-opacity="0.0" stroke="#7F7F80" stroke-opacity="1.00" stroke-width="0.3"><path d="
M 155.00 146.00 
C 160.67 146.00 166.33 146.00 172.00 146.00
C 166.72 145.49 160.35 145.48 155.00 146.00 Z"/>
</g>
<g fill="None" fill-opacity="0.0" stroke="#777779" stroke-opacity="1.00" stroke-width="0.3"><path d="
M 99.00 171.00 
C 99.02 169.92 99.95 166.85 100.00 165.00
C 99.83 166.53 98.80 168.71 99.00 171.00 Z"/>
</g>
<g fill="#000000" fill-opacity="0.00" stroke="None">
<path d="
M 0.00 200.00 
L 87.00 200.00
C 87.32 184.78 88.78 170.87 90.00 156.00
C 63.40 153.91 30.30 163.95 11.75 141.25 C -6.80 118.55 4.33 85.02 1.00 58.00 C -2.33 30.98 10.95 6.08 37.00 0.00
L 0.00 0.00
L 0.00 200.00 Z"/>
</g>
<g fill="#040307" fill-opacity="0.97" stroke="None">
<path d="
M 87.00 200.00 
L 88.00 200.00
C 100.34 184.84 112.61 180.75 126.08 165.08 C 139.56 149.41 170.39 159.81 188.67 154.67 C 206.96 149.54 220.23 134.03 220.98 113.98 C 221.72 93.92 221.14 61.40 221.00 41.00 C 220.86 20.60 204.00 7.51 188.00 0.00
L 37.00 0.00
C 10.95 6.08 -2.33 30.98 1.00 58.00 C 4.33 85.02 -6.80 118.55 11.75 141.25 C 30.30 163.95 63.40 153.91 90.00 156.00
C 88.78 170.87 87.32 184.78 87.00 200.00
M 172.00 146.00 
C 166.33 146.00 160.67 146.00 155.00 146.00
C 143.18 146.00 129.05 144.60 121.75 154.75 C 114.45 164.90 106.76 165.37 100.00 175.00
C 98.40 174.47 99.28 172.25 99.00 171.00
C 98.80 168.71 99.83 166.53 100.00 165.00
C 100.18 158.49 99.90 152.25 101.00 146.00
C 79.29 142.08 51.60 152.25 31.32 143.68 C 11.04 135.11 9.44 112.33 11.00 92.00 C 12.56 71.67 5.96 45.06 16.92 25.92 C 27.89 6.79 55.39 10.71 75.00 11.00
C 77.75 10.73 81.58 10.00 85.00 10.00
C 107.81 10.00 137.92 11.06 160.00 10.00 C 182.08 8.94 204.06 12.28 209.32 35.68 C 214.58 59.08 209.18 85.35 211.00 109.00 C 212.82 132.65 192.89 146.00 172.00 146.00 Z"/>
</g>
<g fill="#000000" fill-opacity="0.00" stroke="None">
<path d="
M 88.00 200.00 
L 222.00 200.00
L 222.00 0.00
L 188.00 0.00
C 204.00 7.51 220.86 20.60 221.00 41.00 C 221.14 61.40 221.72 93.92 220.98 113.98 C 220.23 134.03 206.96 149.54 188.67 154.67 C 170.39 159.81 139.56 149.41 126.08 165.08 C 112.61 180.75 100.34 184.84 88.00 200.00 Z"/>
</g>
<g fill="#808081" fill-opacity="1.00" stroke="None">
<path d="
M 75.00 11.00 
C 78.42 11.00 82.31 10.26 85.00 10.00
C 81.58 10.00 77.75 10.73 75.00 11.00 Z"/>
</g>
<g fill="#FDFDFD" fill-opacity="1.00" stroke="None">
<path d="
M 75.00 11.00 
C 55.39 10.71 27.89 6.79 16.92 25.92 C 5.96 45.06 12.56 71.67 11.00 92.00 C 9.44 112.33 11.04 135.11 31.32 143.68 C 51.60 152.25 79.29 142.08 101.00 146.00
C 99.90 152.25 100.18 158.49 100.00 165.00
C 99.95 166.85 99.02 169.92 99.00 171.00
C 99.28 172.25 98.40 174.47 100.00 175.00
C 106.76 165.37 114.45 164.90 121.75 154.75 C 129.05 144.60 143.18 146.00 155.00 146.00
C 160.35 145.48 166.72 145.49 172.00 146.00
C 192.89 146.00 212.82 132.65 211.00 109.00 C 209.18 85.35 214.58 59.08 209.32 35.68 C 204.06 12.28 182.08 8.94 160.00 10.00 C 137.92 11.06 107.81 10.00 85.00 10.00
C 82.31 10.26 78.42 11.00 75.00 11.00
M 79.00 68.00 
C 91.03 70.01 87.59 90.48 75.00 88.00 C 62.41 85.52 66.55 65.92 79.00 68.00
M 113.00 68.00 
C 125.03 70.01 121.59 90.48 109.00 88.00 C 96.41 85.52 100.55 65.92 113.00 68.00
M 147.00 68.00 
C 159.20 70.04 155.54 91.02 143.00 88.00 C 130.46 84.98 134.88 65.97 147.00 68.00 Z"/>
</g>
<g fill="#07060C" fill-opacity="1.00" stroke="None">
<path d="
M 79.00 68.00 
C 66.55 65.92 62.41 85.52 75.00 88.00 C 87.59 90.48 91.03 70.01 79.00 68.00 Z"/>
</g>
<g fill="#08070C" fill-opacity="1.00" stroke="None">
<path d="
M 113.00 68.00 
C 100.55 65.92 96.41 85.52 109.00 88.00 C 121.59 90.48 125.03 70.01 113.00 68.00 Z"/>
</g>
<g fill="#08060C" fill-opacity="1.00" stroke="None">
<path d="
M 147.00 68.00 
C 134.88 65.97 130.46 84.98 143.00 88.00 C 155.54 91.02 159.20 70.04 147.00 68.00 Z"/>
</g>
<g fill="#7F7F80" fill-opacity="1.00" stroke="None">
<path d="
M 155.00 146.00 
C 160.67 146.00 166.33 146.00 172.00 146.00
C 166.72 145.49 160.35 145.48 155.00 146.00 Z"/>
</g>
<g fill="#777779" fill-opacity="1.00" stroke="None">
<path d="
M 99.00 171.00 
C 99.02 169.92 99.95 166.85 100.00 165.00
C 99.83 166.53 98.80 168.71 99.00 171.00 Z"/>
</g>
</svg>