<?xml version="1.0" encoding="UTF-8"?>
<svg id="Calque_2" data-name="Calque 2" xmlns="http://www.w3.org/2000/svg" viewBox="0 0 394.44 437.62">
  <defs>
    <style>
      .cls-1 {
        fill: #b7e3f9;
      }

      .cls-2 {
        fill: #10171d;
      }

      .cls-3 {
        fill: #537fa2;
      }
    </style>
  </defs>
  <g id="Calque_1-2" data-name="Calque 1">
    <g>
      <polygon class="cls-2" points="184.66 236.78 184.63 260.31 160.71 260.28 143.15 260.25 95.62 333.48 105.7 356.01 114.79 376.34 93.32 385.95 91.21 381.22 68.92 331.4 130.39 236.71 174.21 236.77 184.66 236.78"/>
      <path class="cls-2" d="M303.27,87.25l-4.22-19.86-70.22-45.58-26.99,5.74L118.27,0l-43.12,27.14v41.32l81.34,32.34,3.52,16.52L0,343.57v70.11l35.46,23.94,62.21-20.42,141.5-246.26,15.62-4.88c62.8,54.62,97.68,118.09,98.03,118.74l4.16,7.65,35.75-7.25.78-8.74c10.4-116.5-69.46-175.84-90.24-189.21ZM370.67,265.67l-1.55.31c-11.85-19.79-47.25-74.23-104.04-122.08l-4.94-4.16-26.86,8.4-9.92,3.1-7.65,13.31-41.5,72.22-13.5,23.51-55.01,95.73-14.49,25.21-9.45,16.44-42.69,14.01-15.54-10.49v-50.13l151.9-214.78,9.74-13.77-2.04-9.56-6.24-29.35-78.21-31.09v-12.37l22.75-14.32,79.09,26.08,23.67-5.04,53.87,34.97,4.38,20.47,4.61,2.61c3.72,2.1,88.81,51.47,83.62,160.77Z"/>
      <path class="cls-1" d="M370.67,265.67l-1.55.31c-11.85-19.79-47.25-74.23-104.04-122.08l-4.94-4.16-26.86,8.4-50.15-35.2-6.24-29.35-78.21-31.09v-12.37l22.75-14.32,79.09,26.08,23.67-5.04,53.87,34.97,4.38,20.47,4.61,2.61c3.72,2.1,88.81,51.47,83.62,160.77Z"/>
      <polygon class="cls-1" points="160.71 260.28 105.7 356.01 95.62 333.48 143.15 260.25 160.71 260.28"/>
      <polygon class="cls-3" points="215.71 164.55 174.21 236.77 130.39 236.71 68.92 331.4 91.21 381.22 81.76 397.66 39.07 411.67 23.53 401.18 23.53 351.05 175.43 136.27 215.71 164.55"/>
      <polygon class="cls-2" points="247.65 158.22 234.14 177.48 215.71 164.55 175.43 136.27 156.2 122.78 169.72 103.52 183.13 112.94 233.28 148.14 247.65 158.22"/>
    </g>
  </g>
</svg>