<?xml version="1.0" encoding="UTF-8"?>
<svg id="Calque_2" data-name="Calque 2" xmlns="http://www.w3.org/2000/svg" width="160"
  height="74"
  viewBox="0 0 160 74">
  <g id="Calque_1-2" data-name="Calque 1" transform="translate(13, 118) scale(0.3)">
    <path fill="$fillColor" d="M294.22.22c15.38-.69,30.44.44,45.66.92,24.28.78,48.95.45,72.82,5.73,12.52,2.77,27.32,9.83,39.52,10.66,9.67.66,20.31.47,30,.54,18.05.14,34.38-8.41,51.67-12.19,52.2-11.42,106.63,5.21,158.75,10.14,7.2,1.47,11.91,3.68,13.8,11.29.93,3.75,2.32,18.43,1.84,22.06-.7,5.33-5.03,7.61-7.81,11.27-8.58,11.3-8.47,49.6-11.95,65.51-7.81,35.78-33.36,50.58-68.29,53.35-32.81,2.6-67.29,1.45-90.55-25.08-12.41-14.15-21.65-39.21-29.07-56.56-3.43-8.02-13.9-25.35-21.89-28.83-5.27-2.29-8.52,1.93-11.76,5.74-10.82,12.75-13.91,29.81-20.9,44.56-12.46,26.31-37.4,45.19-65.32,52.5-30.12,7.88-93.24,8.61-119.85-8.79-22.35-14.61-33.86-50.18-39.38-75.16-2.09-9.44-2.77-20.47-5.45-29.46-3.95-13.26-16.67-10.3-27.79-12.03-50.71,2.27-101.48.51-152.18-.55-6.96-.14-16.33.87-22.88-.03-5.3-.73-8.62-4.58-10.29-9.34-1.43-4.08-4.64-14.49-1.71-17.84,5.08-5.81,30.29-4.09,38.16-4.38,1.29-.05,2.48-.54,3.77-.59,47.7-1.89,95.21-7.6,142.95-9.23,24.94-.85,49.81.61,74.7-1.12,11.14-.78,22.26-2.6,33.44-3.11Z"/>
  </g>
</svg>