<?xml version="1.0" encoding="UTF-8"?>
<svg id="Calque_2" data-name="Calque 2" xmlns="http://www.w3.org/2000/svg" width="160"
  height="74"
  viewBox="0 0 160 74"
  fill="none">
  <defs>
    <style>
      .cls-1-trail {
        fill: #090606;
      }

      .cls-2-trail-w {
        fill: #e9f9ff;
      }
    </style>
  </defs>
  <g id="Calque_1-2" data-name="Calque 1" transform="translate(12, 113) scale(0.3)">
    <path class="cls-1-trail" d="M506.56,126.86c-11.8-10.95-21.99-5.52-30.59,5.16-19.79,24.56-30.43,58.25-62.37,71.68-36.88,15.51-85.73,7.33-123.56-1.47-34.56-8.03-68.15-17.52-89.8-47.52-21.35-29.59-15.19-54.58-59.25-61.73-38-6.16-75.08-4.2-113.04-4.57-3.98-.04-19.83-2.7-22.42-4.93-5.04-4.33-7.81-26.2-3.14-30.53s31.33-8.72,38.98-10.07c45.29-7.97,90.79-7.3,135.73-13.58,21.92-3.06,42.64-10.55,64.11-15.45C297.02,1.14,352.32.17,409.34.01c70.62-.19,141.24,1.89,211.33,11.11,37.58,4.94,85.99,6.95,92.23,52.71,2.91,21.32-3.49,78.14-17.4,94.83-20.93,25.1-97.18,48.82-129.05,45.09-34.65-4.06-40.11-58.53-59.89-76.88ZM336.69,12.37c-53.44,2.13-91.01,14.65-141.45,25.3-9.26,1.95-18.7,2.55-27.88,4.82-2.1,15.22-3.89,30.59-1.02,45.86,30.79,17.46,30.34,53.87,57.8,76.26,30.19,24.62,119.76,40.64,157.87,35.85,60.01-7.54,56.52-45.31,89.49-80.52,19.48-20.8,41.22-6.61,53.06,13.45,10.08,17.07,21.59,56.74,44.07,59.46,27.27,3.3,100.19-19.31,118.1-40.78,12.49-14.98,18.81-76.78,13.45-95.13-8.39-28.74-58.28-31.66-83.86-34.94-90.11-11.56-188.68-13.25-279.63-9.63ZM156,42.57c-44.04,4.65-90.02,5.08-133.16,15.59-2.02.49-9.48,1.83-10.21,2.87-1.29,1.83-1.18,12.51,1.33,14.06,5.93,3.66,42.26.01,52.12.19,17.07.3,38.29,2.67,55.59,4.36,11.12,1.08,22.15,3.13,33.24,4.35-2.74-13.83.15-27.61,1.09-41.4Z"/>
    <path fill="$fillColor" d="M336.69,12.37c90.95-3.62,189.52-1.93,279.63,9.63,25.58,3.28,75.47,6.2,83.86,34.94,5.36,18.35-.96,80.15-13.45,95.13-17.91,21.47-90.83,44.08-118.1,40.78-22.48-2.72-34-42.39-44.07-59.46-11.84-20.05-33.57-34.25-53.06-13.45-32.97,35.21-29.48,72.98-89.49,80.52-38.11,4.79-127.68-11.24-157.87-35.85-27.45-22.38-27.01-58.8-57.8-76.26-2.87-15.27-1.08-30.64,1.02-45.86,9.18-2.27,18.62-2.86,27.88-4.82,50.43-10.65,88.01-23.17,141.45-25.3ZM467.48,20c-51.7-.11-104.52-.27-156.12,1.9-61.05,2.57-110.76-1.09-105.2,76.78,4.13,57.76,39.69,62.62,88.25,74.14,25.03,5.94,83.68,19.78,106.6,12.85,38.39-11.62,43.95-75.25,83.26-84.58,51.96-12.33,48.61,71.16,91.29,82.66,25.57,6.89,73.13-10.87,91.64-29.43,19.56-19.62,27.99-58.11,26.16-85.1-1.3-19.03-5.34-26.41-23.79-31.8-33.79-9.87-76.65-8.65-111.93-11.22-30.16-2.19-59.81-6.14-90.15-6.21Z"/>
    <path fill="$fillColor" d="M156,42.57c-.94,13.79-3.83,27.57-1.09,41.4-11.09-1.21-22.12-3.26-33.24-4.35-17.3-1.68-38.52-4.06-55.59-4.36-9.87-.17-46.19,3.47-52.12-.19-2.51-1.54-2.62-12.23-1.33-14.06.73-1.04,8.19-2.38,10.21-2.87,43.14-10.51,89.12-10.94,133.16-15.59Z"/>
    <path class="cls-1-trail" d="M467.48,20c30.34.06,59.99,4.01,90.15,6.21,35.29,2.57,78.14,1.35,111.93,11.22,18.45,5.39,22.49,12.77,23.79,31.8,1.84,26.98-6.6,65.48-26.16,85.1-18.51,18.56-66.07,36.32-91.64,29.43-42.68-11.51-39.32-94.99-91.29-82.66-39.31,9.33-44.86,72.96-83.26,84.58-22.93,6.94-81.57-6.91-106.6-12.85-48.56-11.51-84.12-16.38-88.25-74.14-5.56-77.86,44.15-74.2,105.2-76.78,51.6-2.18,104.42-2.01,156.12-1.9Z"/>
  </g>
</svg>